<svg xmlns="http://www.w3.org/2000/svg" width="598.27" height="151.172" viewBox="0 0 598.27 151.172">
  <g id="Group_6874" data-name="Group 6874" transform="translate(-32.865 -49.414)">
    <g id="A_LEARNING_PLACE" data-name="A LEARNING PLACE" style="isolation: isolate">
      <g id="Group_6871" data-name="Group 6871" style="isolation: isolate">
        <path id="Path_14424" data-name="Path 14424" d="M272.93,112.236l8.356-18.276h1.9l8.355,18.276h-2.037l-7.675-17.153h.783l-7.676,17.153Zm3.29-4.882.574-1.567H287.42l.576,1.567Z" fill="#181818"/>
        <path id="Path_14425" data-name="Path 14425" d="M314.469,112.236V93.96H316.4v16.605h10.234v1.671Z" fill="#181818"/>
        <path id="Path_14426" data-name="Path 14426" d="M338.3,110.565H349.3v1.671H336.374V93.96h12.532v1.672H338.3Zm-.209-8.432h9.66v1.644H338.1Z" fill="#181818"/>
        <path id="Path_14427" data-name="Path 14427" d="M357.443,112.236,365.8,93.96H367.7l8.355,18.276h-2.037l-7.676-17.153h.783l-7.675,17.153Zm3.29-4.882.574-1.567h10.626l.575,1.567Z" fill="#181818"/>
        <path id="Path_14428" data-name="Path 14428" d="M385.615,112.236V93.96h6.84a9.777,9.777,0,0,1,4,.744,5.753,5.753,0,0,1,2.571,2.142,6.1,6.1,0,0,1,.9,3.38,6.008,6.008,0,0,1-.9,3.33,5.762,5.762,0,0,1-2.571,2.14,9.777,9.777,0,0,1-4,.744h-5.77l.861-.887v6.683Zm1.931-6.527-.861-.913H392.4a6.309,6.309,0,0,0,4.164-1.2,4.729,4.729,0,0,0,0-6.763,6.309,6.309,0,0,0-4.164-1.2h-5.718l.861-.914Zm10.548,6.527-4.7-6.632h2.089l4.725,6.632Z" fill="#181818"/>
        <path id="Path_14429" data-name="Path 14429" d="M411.018,112.236V93.96h1.593l12.61,15.874h-.836V93.96h1.907v18.276H424.7L412.115,96.362h.835v15.874Z" fill="#181818"/>
        <path id="Path_14430" data-name="Path 14430" d="M438.77,112.236V93.96H440.7v18.276Z" fill="#181818"/>
        <path id="Path_14431" data-name="Path 14431" d="M453.182,112.236V93.96h1.593l12.61,15.874h-.836V93.96h1.907v18.276h-1.593L454.279,96.362h.835v15.874Z" fill="#181818"/>
        <path id="Path_14432" data-name="Path 14432" d="M488.95,112.392a10.451,10.451,0,0,1-3.851-.691,9.114,9.114,0,0,1-3.055-1.945,8.881,8.881,0,0,1-2.01-2.95,9.934,9.934,0,0,1,0-7.416,8.8,8.8,0,0,1,2.023-2.95,9.275,9.275,0,0,1,3.068-1.944,10.435,10.435,0,0,1,3.851-.692,10.794,10.794,0,0,1,3.825.652,7.611,7.611,0,0,1,2.963,1.984l-1.2,1.228a6.816,6.816,0,0,0-2.532-1.645,8.753,8.753,0,0,0-2.977-.5,8.428,8.428,0,0,0-3.119.561,7.39,7.39,0,0,0-4.126,4,8,8,0,0,0,0,6.017,7.358,7.358,0,0,0,4.126,4.008,8.339,8.339,0,0,0,3.094.562,9.243,9.243,0,0,0,2.963-.47,6.9,6.9,0,0,0,2.571-1.593l1.1,1.462a8.819,8.819,0,0,1-3.055,1.737A11.422,11.422,0,0,1,488.95,112.392Zm4.856-2.558V103.1h1.854v6.971Z" fill="#181818"/>
        <path id="Path_14433" data-name="Path 14433" d="M521.01,112.236V93.96h6.84a9.77,9.77,0,0,1,3.995.744,5.751,5.751,0,0,1,2.572,2.142,6.106,6.106,0,0,1,.9,3.38,6.016,6.016,0,0,1-.9,3.33,5.843,5.843,0,0,1-2.572,2.153,9.618,9.618,0,0,1-3.995.758h-5.769l.861-.914v6.683Zm1.932-6.527-.861-.94H527.8a6.348,6.348,0,0,0,4.164-1.188,4.125,4.125,0,0,0,1.423-3.355,4.2,4.2,0,0,0-1.423-3.394,6.309,6.309,0,0,0-4.164-1.2h-5.717l.861-.914Z" fill="#181818"/>
        <path id="Path_14434" data-name="Path 14434" d="M546.022,112.236V93.96h1.932v16.605h10.234v1.671Z" fill="#181818"/>
        <path id="Path_14435" data-name="Path 14435" d="M565,112.236l8.356-18.276h1.905l8.356,18.276h-2.037l-7.676-17.153h.783l-7.676,17.153Zm3.29-4.882.575-1.567h10.626l.575,1.567Z" fill="#181818"/>
        <path id="Path_14436" data-name="Path 14436" d="M600.85,112.392a10.272,10.272,0,0,1-3.811-.691,8.911,8.911,0,0,1-5.027-4.895,9.933,9.933,0,0,1,0-7.416,8.919,8.919,0,0,1,2.011-2.95,9.141,9.141,0,0,1,3.042-1.944,10.253,10.253,0,0,1,3.811-.692,10.383,10.383,0,0,1,3.734.666,7.488,7.488,0,0,1,2.95,2l-1.226,1.227a6.814,6.814,0,0,0-2.481-1.658,8.625,8.625,0,0,0-5.979.052,7.3,7.3,0,0,0-2.455,1.593,7.48,7.48,0,0,0-1.631,2.4,8.039,8.039,0,0,0,0,6.031,7.475,7.475,0,0,0,1.631,2.4,7.274,7.274,0,0,0,2.455,1.593,8.17,8.17,0,0,0,3.054.562,8.06,8.06,0,0,0,2.925-.523,6.943,6.943,0,0,0,2.481-1.671l1.226,1.228a7.612,7.612,0,0,1-2.95,2.01A10.29,10.29,0,0,1,600.85,112.392Z" fill="#181818"/>
        <path id="Path_14437" data-name="Path 14437" d="M620.143,110.565h10.992v1.671H618.211V93.96h12.533v1.672h-10.6Zm-.209-8.432h9.66v1.644h-9.66Z" fill="#181818"/>
      </g>
    </g>
    <g id="A_TEACHING_PLACE" data-name="A TEACHING PLACE" style="isolation: isolate">
      <g id="Group_6872" data-name="Group 6872" style="isolation: isolate">
        <path id="Path_14438" data-name="Path 14438" d="M272.93,154.435l8.356-18.276h1.9l8.355,18.276h-2.037l-7.675-17.153h.783l-7.676,17.153Zm3.29-4.881.574-1.568H287.42l.576,1.568Z" fill="#181818"/>
        <path id="Path_14439" data-name="Path 14439" d="M318.072,154.435v-16.6h-6.423v-1.672h14.777v1.672H320v16.6Z" fill="#181818"/>
        <path id="Path_14440" data-name="Path 14440" d="M337.992,152.765h10.992v1.67H336.06V136.159h12.532v1.672h-10.6Zm-.209-8.433h9.66v1.644h-9.66Z" fill="#181818"/>
        <path id="Path_14441" data-name="Path 14441" d="M357.155,154.435l8.355-18.276h1.906l8.355,18.276h-2.037l-7.676-17.153h.783l-7.675,17.153Zm3.29-4.881.574-1.568h10.626l.575,1.568Z" fill="#181818"/>
        <path id="Path_14442" data-name="Path 14442" d="M393.028,154.592a10.278,10.278,0,0,1-3.812-.692,8.913,8.913,0,0,1-5.026-4.895,9.931,9.931,0,0,1,0-7.415,8.869,8.869,0,0,1,2.011-2.95,9.143,9.143,0,0,1,3.042-1.945,10.253,10.253,0,0,1,3.811-.692,10.387,10.387,0,0,1,3.734.666,7.487,7.487,0,0,1,2.95,2l-1.227,1.227a6.8,6.8,0,0,0-2.48-1.658,8.628,8.628,0,0,0-5.98.052,7.3,7.3,0,0,0-2.454,1.593,7.5,7.5,0,0,0-1.632,2.4,8.039,8.039,0,0,0,0,6.031,7.51,7.51,0,0,0,1.632,2.4,7.282,7.282,0,0,0,2.454,1.592,8.176,8.176,0,0,0,3.055.562,8.084,8.084,0,0,0,2.925-.522,6.957,6.957,0,0,0,2.48-1.671l1.227,1.227a7.612,7.612,0,0,1-2.95,2.01A10.29,10.29,0,0,1,393.028,154.592Z" fill="#181818"/>
        <path id="Path_14443" data-name="Path 14443" d="M412.348,154.435h-1.931V136.159h1.931ZM423.966,146H412.139v-1.7h11.827Zm-.182-9.844h1.906v18.276h-1.906Z" fill="#181818"/>
        <path id="Path_14444" data-name="Path 14444" d="M438.2,154.435V136.159h1.931v18.276Z" fill="#181818"/>
        <path id="Path_14445" data-name="Path 14445" d="M452.633,154.435V136.159h1.593l12.61,15.874H466V136.159h1.907v18.276h-1.593L453.73,138.561h.835v15.874Z" fill="#181818"/>
        <path id="Path_14446" data-name="Path 14446" d="M488.426,154.592a10.446,10.446,0,0,1-3.85-.692,9.1,9.1,0,0,1-3.055-1.945,8.889,8.889,0,0,1-2.011-2.95,9.931,9.931,0,0,1,0-7.415,8.8,8.8,0,0,1,2.024-2.95A9.268,9.268,0,0,1,484.6,136.7a10.431,10.431,0,0,1,3.851-.692,10.821,10.821,0,0,1,3.825.652,7.628,7.628,0,0,1,2.963,1.985l-1.2,1.227a6.817,6.817,0,0,0-2.533-1.644,8.727,8.727,0,0,0-2.976-.5,8.428,8.428,0,0,0-3.119.561,7.382,7.382,0,0,0-4.126,3.995,8.006,8.006,0,0,0,0,6.018,7.344,7.344,0,0,0,4.126,4.007,8.334,8.334,0,0,0,3.093.562,9.238,9.238,0,0,0,2.963-.47,6.9,6.9,0,0,0,2.572-1.592l1.1,1.461a8.815,8.815,0,0,1-3.054,1.737A11.424,11.424,0,0,1,488.426,154.592Zm4.857-2.559V145.3h1.853v6.97Z" fill="#181818"/>
        <path id="Path_14447" data-name="Path 14447" d="M520.54,154.435V136.159h6.839a9.778,9.778,0,0,1,4,.744,5.754,5.754,0,0,1,2.571,2.142,6.107,6.107,0,0,1,.9,3.381,6.015,6.015,0,0,1-.9,3.329,5.846,5.846,0,0,1-2.571,2.153,9.626,9.626,0,0,1-4,.758H521.61l.861-.914v6.683Zm1.931-6.527-.861-.939h5.718a6.349,6.349,0,0,0,4.164-1.189,4.127,4.127,0,0,0,1.423-3.354,4.2,4.2,0,0,0-1.423-3.395,6.31,6.31,0,0,0-4.164-1.2H521.61l.861-.914Z" fill="#181818"/>
        <path id="Path_14448" data-name="Path 14448" d="M545.578,154.435V136.159h1.931v16.606h10.235v1.67Z" fill="#181818"/>
        <path id="Path_14449" data-name="Path 14449" d="M564.584,154.435l8.355-18.276h1.9l8.356,18.276h-2.037l-7.676-17.153h.783l-7.676,17.153Zm3.29-4.881.574-1.568h10.626l.575,1.568Z" fill="#181818"/>
        <path id="Path_14450" data-name="Path 14450" d="M600.457,154.592a10.278,10.278,0,0,1-3.812-.692,8.913,8.913,0,0,1-5.026-4.895,9.931,9.931,0,0,1,0-7.415,8.88,8.88,0,0,1,2.01-2.95,9.153,9.153,0,0,1,3.042-1.945,10.258,10.258,0,0,1,3.812-.692,10.382,10.382,0,0,1,3.733.666,7.491,7.491,0,0,1,2.951,2l-1.227,1.227a6.8,6.8,0,0,0-2.481-1.658,8.625,8.625,0,0,0-5.979.052,7.3,7.3,0,0,0-2.454,1.593,7.642,7.642,0,0,0,0,10.835,7.282,7.282,0,0,0,2.454,1.592,8.172,8.172,0,0,0,3.055.562,8.074,8.074,0,0,0,2.924-.522,6.951,6.951,0,0,0,2.481-1.671l1.227,1.227a7.615,7.615,0,0,1-2.951,2.01A10.289,10.289,0,0,1,600.457,154.592Z" fill="#181818"/>
        <path id="Path_14451" data-name="Path 14451" d="M619.776,152.765h10.992v1.67H617.844V136.159h12.532v1.672h-10.6Zm-.209-8.433h9.66v1.644h-9.66Z" fill="#181818"/>
      </g>
    </g>
    <g id="Group_5693" data-name="Group 5693">
      <g id="Path_2233" data-name="Path 2233">
        <path id="Path_14452" data-name="Path 14452" d="M163.806,200.586H120.168l21.819-37.793h0Z" fill="#abf2f1"/>
      </g>
      <g id="Path_2234" data-name="Path 2234">
        <path id="Path_14453" data-name="Path 14453" d="M120.164,200.586H76.525l21.819-37.793Z" fill="#2dc1be"/>
      </g>
      <g id="Path_2235" data-name="Path 2235">
        <path id="Path_14454" data-name="Path 14454" d="M120.16,200.586,98.341,162.793H141.98Z" fill="#8ce1df"/>
      </g>
      <g id="Path_2238" data-name="Path 2238">
        <path id="Path_14455" data-name="Path 14455" d="M141.983,87.207h0L120.164,49.414H163.8Z" fill="#d596ab"/>
      </g>
      <g id="Path_2239" data-name="Path 2239">
        <path id="Path_14456" data-name="Path 14456" d="M98.341,87.207,76.522,49.414H120.16Z" fill="#aa2b56"/>
      </g>
      <g id="Path_2240" data-name="Path 2240">
        <path id="Path_14457" data-name="Path 14457" d="M54.7,162.793h0L32.883,125H76.522Z" fill="#999dfa"/>
      </g>
      <g id="Path_2241" data-name="Path 2241">
        <path id="Path_14458" data-name="Path 14458" d="M76.522,200.586,54.7,162.793H98.341Z" fill="#4950df"/>
      </g>
      <g id="Path_2242" data-name="Path 2242">
        <path id="Path_14459" data-name="Path 14459" d="M98.337,162.793H54.7L76.518,125Z" fill="#6f75f7"/>
      </g>
      <g id="Path_2243" data-name="Path 2243">
        <path id="Path_14460" data-name="Path 14460" d="M207.456,125H163.817L185.636,87.2Z" fill="#fab570"/>
      </g>
      <g id="Path_2244" data-name="Path 2244">
        <path id="Path_14461" data-name="Path 14461" d="M185.625,87.207H141.987l21.819-37.793L185.629,87.2Z" fill="#ffe1c4"/>
      </g>
      <g id="Path_2245" data-name="Path 2245">
        <path id="Path_14462" data-name="Path 14462" d="M98.345,87.207H54.706l21.82-37.793Z" fill="#912b91"/>
      </g>
      <g id="Path_2246" data-name="Path 2246">
        <path id="Path_14463" data-name="Path 14463" d="M76.522,125H32.865L54.684,87.2h0Z" fill="#c896c8"/>
      </g>
      <g id="Path_2247" data-name="Path 2247">
        <path id="Path_14464" data-name="Path 14464" d="M141.979,87.207H98.341L120.16,49.414Z" fill="#c46b89"/>
      </g>
      <g id="Path_2248" data-name="Path 2248">
        <path id="Path_14465" data-name="Path 14465" d="M76.522,125,54.7,87.2H98.341Z" fill="#b26bb2"/>
      </g>
      <g id="Path_2249" data-name="Path 2249">
        <path id="Path_14466" data-name="Path 14466" d="M163.8,125,141.98,87.2h43.638Z" fill="#ffd4a9"/>
      </g>
      <g id="Path_2250" data-name="Path 2250">
        <path id="Path_14467" data-name="Path 14467" d="M185.629,162.793,163.817,125h43.639Z" fill="#2b8080"/>
      </g>
      <g id="Path_2251" data-name="Path 2251">
        <path id="Path_14468" data-name="Path 14468" d="M185.625,162.793H141.987L163.81,125Z" fill="#6ba6a6"/>
      </g>
      <g id="Path_2252" data-name="Path 2252">
        <path id="Path_14469" data-name="Path 14469" d="M163.8,200.586,141.98,162.793h43.638Z" fill="#96c0c0"/>
      </g>
    </g>
    <g id="Group_6873" data-name="Group 6873">
      <rect id="Rectangle_4673" data-name="Rectangle 4673" width="1" height="113" transform="translate(239.029 68.83)" fill="#181818" opacity="0.6"/>
    </g>
  </g>
</svg>
