<svg xmlns="http://www.w3.org/2000/svg" width="308.343" height="310.341" viewBox="0 0 308.343 310.341">
  <g id="Group_5653" data-name="Group 5653" transform="translate(-167.36 -147.409)">
    <g id="Group_5650" data-name="Group 5650" transform="translate(160.122 156.312) rotate(-3)" opacity="0.6">
      <g id="Group_9" data-name="Group 9">
        <path id="Path_75" data-name="Path 75" d="M1316.938,3241.333l-17.158-9.166.114-1.842,18.158-6.98-.121,1.968-17.034,6.39.047-.757,16.115,8.444Zm-4.521-3.47-1.479-.649.636-10.267,1.548-.462Z" transform="translate(-1299.78 -3085.049)"/>
        <path id="Path_76" data-name="Path 76" d="M1346.136,3128.1l-15.652-8.249.872-1.655,14.221,7.5,4.62-8.765,1.431.755Z" transform="translate(-1314.963 -3032.428)"/>
        <path id="Path_77" data-name="Path 77" d="M1372.547,3075.084l6.6-8.346,1.268,1-7.761,9.813-13.877-10.975,7.526-9.515,1.269,1-6.365,8.048Zm-6.529-4.905,5.8-7.335,1.25.988-5.8,7.335Z" transform="translate(-1328.955 -3002.824)"/>
        <path id="Path_78" data-name="Path 78" d="M1411.349,3042.577l-5.341-18.707,1.4-1.2,17.64,8.2-1.5,1.28-16.435-7.8.576-.493,5.134,17.454Zm-.647-5.663-.563-1.514,7.823-6.68,1.408.792Z" transform="translate(-1352.309 -2985.818)"/>
        <path id="Path_79" data-name="Path 79" d="M1455.952,3005.7l-8.579-15.474,5.792-3.211a9.445,9.445,0,0,1,3.731-1.245,5.572,5.572,0,0,1,3.182.605,5.912,5.912,0,0,1,2.35,2.44,5.813,5.813,0,0,1,.8,3.241,5.557,5.557,0,0,1-1.172,3.02,9.46,9.46,0,0,1-3.032,2.506l-4.886,2.709.313-1.156,3.138,5.659Zm-1.429-6.434-1.158-.369,4.84-2.685a6.107,6.107,0,0,0,2.963-2.971,4.578,4.578,0,0,0-3.175-5.725,6.1,6.1,0,0,0-4.089.937l-4.842,2.685.3-1.178Zm12,.575-7.092-3.409,1.768-.981,7.115,3.4Z" transform="translate(-1372.763 -2967.555)"/>
        <path id="Path_80" data-name="Path 80" d="M1508.789,2980.385l-5.151-16.926,1.475-.449,16.154,11.147-.774.236-4.474-14.7,1.765-.537,5.151,16.926-1.475.449-16.129-11.155.773-.236,4.475,14.7Z" transform="translate(-1400.586 -2954.409)"/>
        <path id="Path_81" data-name="Path 81" d="M1569.479,2970.026l-2.18-17.558,1.856-.23,2.18,17.557Z" transform="translate(-1432.066 -2950.989)"/>
        <path id="Path_82" data-name="Path 82" d="M1605.47,2967.442l.809-17.675,1.54.071,11.493,15.91-.808-.037.7-15.352,1.843.084-.809,17.675-1.541-.071-11.467-15.908.807.037-.7,15.351Z" transform="translate(-1450.941 -2949.767)"/>
        <path id="Path_83" data-name="Path 83" d="M1672.571,2977.648a10.107,10.107,0,0,1-3.43-1.605,8.831,8.831,0,0,1-2.374-2.581,8.6,8.6,0,0,1-1.146-3.26,9.616,9.616,0,0,1,1.846-6.937,8.521,8.521,0,0,1,2.628-2.255,8.954,8.954,0,0,1,3.354-1.056,10.1,10.1,0,0,1,3.776.311,10.438,10.438,0,0,1,3.415,1.563,7.375,7.375,0,0,1,2.278,2.593l-1.43.85a6.622,6.622,0,0,0-1.959-2.17,8.513,8.513,0,0,0-2.661-1.2,8.182,8.182,0,0,0-3.059-.252,7.144,7.144,0,0,0-4.853,2.71,7.744,7.744,0,0,0-1.5,5.63,7.112,7.112,0,0,0,2.862,4.776,8.081,8.081,0,0,0,2.754,1.3,8.931,8.931,0,0,0,2.89.3,6.669,6.669,0,0,0,2.8-.85l.662,1.641a8.544,8.544,0,0,1-3.29.864A11.023,11.023,0,0,1,1672.571,2977.648Zm5.18-1.184,1.677-6.3,1.734.462-1.735,6.521Z" transform="translate(-1480.644 -2954.775)"/>
        <path id="Path_84" data-name="Path 84" d="M1747.56,3008.989l9.751-14.763,5.526,3.649a9.471,9.471,0,0,1,2.83,2.732,5.573,5.573,0,0,1,.935,3.1,5.91,5.91,0,0,1-1.077,3.212,5.819,5.819,0,0,1-2.5,2.208,5.651,5.651,0,0,1-3.227.367,9.3,9.3,0,0,1-3.63-1.52l-4.661-3.078,1.184-.279-3.566,5.4Zm5.043-4.242-.194-1.219,4.618,3.051a6.15,6.15,0,0,0,4,1.262,4,4,0,0,0,2.939-1.951,4.064,4.064,0,0,0,.662-3.5,6.1,6.1,0,0,0-2.723-3.192l-4.618-3.051,1.183-.278Z" transform="translate(-1521.203 -2971.752)"/>
        <path id="Path_85" data-name="Path 85" d="M1791.029,3043.4l12.313-12.7,1.344,1.3-11.189,11.542,7.115,6.9-1.126,1.161Z" transform="translate(-1542.698 -2989.784)"/>
        <path id="Path_86" data-name="Path 86" d="M1820.676,3083.153l19.124-3.567,1.062,1.508-9.815,16.8-1.135-1.613,9.3-15.634.436.621-17.856,3.479Zm5.7-.116,1.561-.418,5.921,8.413-.92,1.328Z" transform="translate(-1557.359 -3013.961)"/>
        <path id="Path_87" data-name="Path 87" d="M1857.62,3138.6a9.949,9.949,0,0,1-.872-3.648,8.628,8.628,0,0,1,2.38-6.361,9.609,9.609,0,0,1,6.571-2.889,8.6,8.6,0,0,1,3.4.632,8.841,8.841,0,0,1,2.909,1.938,9.96,9.96,0,0,1,2.1,3.108,10.107,10.107,0,0,1,.864,3.568,7.258,7.258,0,0,1-.621,3.393l-1.565-.609a6.6,6.6,0,0,0,.5-2.844,8.338,8.338,0,0,0-2.376-5.279,7.087,7.087,0,0,0-2.367-1.554,7.243,7.243,0,0,0-2.765-.509,7.4,7.4,0,0,0-6.838,4.732,7.056,7.056,0,0,0-.455,2.795,7.921,7.921,0,0,0,.693,2.926,7.83,7.83,0,0,0,1.6,2.388,6.716,6.716,0,0,0,2.447,1.547l-.608,1.566a7.381,7.381,0,0,1-2.931-1.832A9.964,9.964,0,0,1,1857.62,3138.6Z" transform="translate(-1575.193 -3036.766)"/>
        <path id="Path_88" data-name="Path 88" d="M1873.783,3186.253l2.289,10.392-1.58.348-2.691-12.219,17.28-3.8,2.608,11.848-1.58.349-2.206-10.022Zm7.929-1.954,2.011,9.133-1.555.343-2.011-9.133Z" transform="translate(-1582.639 -3064.094)"/>
      </g>
      <g id="Group_11" data-name="Group 11" transform="translate(13.37 192.275)">
        <path id="Path_89" data-name="Path 89" d="M1326.228,3358.449l14.895-6.047-2.339-5.761,1.5-.608,5.382,13.255-1.5.608-2.339-5.761-14.895,6.046Z" transform="translate(-1326.228 -3337.992)"/>
        <path id="Path_90" data-name="Path 90" d="M1348.768,3403.5l5.739,8.96-1.362.873-6.748-10.536,14.9-9.542,6.543,10.217-1.361.872-5.535-8.641Zm6.765-4.573,5.044,7.876-1.34.859-5.044-7.875Z" transform="translate(-1336.201 -3361.342)"/>
        <path id="Path_91" data-name="Path 91" d="M1376.684,3448.8l18.361-6.43,1.278,1.331-7.151,18.091-1.366-1.421,6.823-16.865.525.546-17.121,6.15Zm5.615-.979,1.478-.65,7.129,7.417-.708,1.452Z" transform="translate(-1351.178 -3385.631)"/>
        <path id="Path_92" data-name="Path 92" d="M1432.877,3492.608a9.945,9.945,0,0,1-2.647-2.657,8.626,8.626,0,0,1-1.289-6.668,9.61,9.61,0,0,1,4.1-5.894,8.6,8.6,0,0,1,3.229-1.233,8.857,8.857,0,0,1,3.493.135,9.945,9.945,0,0,1,3.412,1.556,10.081,10.081,0,0,1,2.6,2.593,7.266,7.266,0,0,1,1.241,3.218l-1.654.3a6.6,6.6,0,0,0-1.055-2.689,8.011,8.011,0,0,0-2.043-2.02,7.911,7.911,0,0,0-2.739-1.243,7.034,7.034,0,0,0-2.83-.09,7.224,7.224,0,0,0-2.625,1.007,7.777,7.777,0,0,0-3.333,4.794,7.239,7.239,0,0,0-.03,2.811,7.042,7.042,0,0,0,1.07,2.622,7.926,7.926,0,0,0,2.118,2.134,7.823,7.823,0,0,0,2.613,1.2,6.714,6.714,0,0,0,2.895.042l.3,1.653a7.371,7.371,0,0,1-3.456-.032A9.988,9.988,0,0,1,1432.877,3492.608Z" transform="translate(-1376.922 -3402.28)"/>
        <path id="Path_93" data-name="Path 93" d="M1478.376,3516.514l-1.723-.726,6.865-16.307,1.724.726Zm13.535-3.16-10.553-4.443.637-1.515,10.553,4.443Zm3.534-8.851,1.7.716-6.865,16.307-1.7-.716Z" transform="translate(-1400.612 -3413.871)"/>
        <path id="Path_94" data-name="Path 94" d="M1537.529,3536.038l3.976-17.239,1.822.42-3.976,17.24Z" transform="translate(-1430.714 -3423.423)"/>
        <path id="Path_95" data-name="Path 95" d="M1575.95,3542.486l.966-17.666,1.539.085,11.352,16.01-.808-.044.84-15.344,1.842.1-.965,17.666-1.54-.084-11.326-16.009.807.044-.839,15.344Z" transform="translate(-1449.713 -3426.4)"/>
        <path id="Path_96" data-name="Path 96" d="M1646.4,3539.7a10.1,10.1,0,0,1-3.787-.076,8.835,8.835,0,0,1-3.217-1.395,8.594,8.594,0,0,1-2.37-2.515,9.614,9.614,0,0,1-1.127-7.089,8.5,8.5,0,0,1,1.486-3.128,8.982,8.982,0,0,1,2.637-2.326,10.125,10.125,0,0,1,3.576-1.247,10.434,10.434,0,0,1,3.755.042,7.372,7.372,0,0,1,3.136,1.446l-.962,1.357a6.607,6.607,0,0,0-2.671-1.188,8.531,8.531,0,0,0-2.921-.022,8.189,8.189,0,0,0-2.9,1.011,7.146,7.146,0,0,0-3.336,4.447,7.74,7.74,0,0,0,.915,5.754,7.112,7.112,0,0,0,4.553,3.2,8.078,8.078,0,0,0,3.043.066,8.938,8.938,0,0,0,2.762-.9,6.669,6.669,0,0,0,2.216-1.914l1.271,1.231a8.536,8.536,0,0,1-2.657,2.124A11.02,11.02,0,0,1,1646.4,3539.7Zm4.253-3.184-1.025-6.44,1.773-.282,1.06,6.665Z" transform="translate(-1479.232 -3424.895)"/>
        <path id="Path_97" data-name="Path 97" d="M1728.531,3512.936l-8.187-15.685,5.871-3.064a9.477,9.477,0,0,1,3.762-1.151,5.568,5.568,0,0,1,3.166.686,5.909,5.909,0,0,1,2.288,2.5,5.819,5.819,0,0,1,.718,3.26,5.652,5.652,0,0,1-1.243,3,9.307,9.307,0,0,1-3.089,2.439l-4.953,2.584.33-1.17,2.994,5.736Zm-1.266-6.468-1.16-.42,4.907-2.562a6.149,6.149,0,0,0,3.041-2.884,3.993,3.993,0,0,0-.281-3.517,4.062,4.062,0,0,0-2.741-2.275,6.106,6.106,0,0,0-4.112.834l-4.907,2.561.33-1.17Z" transform="translate(-1521.115 -3410.677)"/>
        <path id="Path_98" data-name="Path 98" d="M1777.013,3486.9l-10.967-13.884,1.468-1.16,9.965,12.615,7.775-6.141,1,1.27Z" transform="translate(-1543.714 -3400.212)"/>
        <path id="Path_99" data-name="Path 99" d="M1816.47,3451.437l-8.069-17.7,1.208-1.393,18.666,5.479-1.291,1.491-17.414-5.265.5-.573,7.678,16.493Zm-1.485-5.5-.781-1.414,6.74-7.772,1.51.573Z" transform="translate(-1564.659 -3380.671)"/>
        <path id="Path_100" data-name="Path 100" d="M1855.813,3392.257a9.955,9.955,0,0,1-2.405,2.878,8.617,8.617,0,0,1-6.524,1.89,9.613,9.613,0,0,1-6.242-3.546,8.594,8.594,0,0,1-1.522-3.1,8.864,8.864,0,0,1-.183-3.491,9.957,9.957,0,0,1,1.24-3.54,10.078,10.078,0,0,1,2.346-2.824,7.263,7.263,0,0,1,3.092-1.528l.446,1.62a6.569,6.569,0,0,0-2.582,1.295,8.344,8.344,0,0,0-2.815,5.058,7.054,7.054,0,0,0,.167,2.827,7.25,7.25,0,0,0,1.242,2.522,7.781,7.781,0,0,0,5.077,2.884,7.229,7.229,0,0,0,2.8-.226,7.02,7.02,0,0,0,2.514-1.3,7.891,7.891,0,0,0,1.934-2.3,7.786,7.786,0,0,0,.957-2.711,6.707,6.707,0,0,0-.22-2.886l1.62-.446a7.38,7.38,0,0,1,.282,3.445A9.982,9.982,0,0,1,1855.813,3392.257Z" transform="translate(-1579.712 -3354.291)"/>
        <path id="Path_101" data-name="Path 101" d="M1873.956,3344.925l3.349-10.1,1.535.509-3.937,11.875-16.794-5.569,3.818-11.515,1.536.51-3.23,9.74Zm-7.813-2.377,2.943-8.877,1.512.5-2.944,8.877Z" transform="translate(-1589.239 -3330.126)"/>
      </g>
    </g>
    <g id="Group_5695" data-name="Group 5695" transform="translate(-530.453 -278.113)">
      <path id="Path_2233" data-name="Path 2233" d="M730.4,5117.366H679.26l25.569-44.288h.005Z" transform="translate(173.715 -4448.079)" fill="#abf2f1"/>
      <path id="Path_2234" data-name="Path 2234" d="M633.675,5117.366H582.537l25.569-44.288Z" transform="translate(219.3 -4448.079)" fill="#2dc1be"/>
      <path id="Path_2235" data-name="Path 2235" d="M656.468,5117.366,630.9,5073.078h51.138Z" transform="translate(196.507 -4448.079)" fill="#8ce1df"/>
      <path id="Path_2238" data-name="Path 2238" d="M704.834,4866.063h-.005l-25.569-44.289H730.4Z" transform="translate(173.715 -4329.641)" fill="#d596ab"/>
      <path id="Path_2239" data-name="Path 2239" d="M608.106,4866.063l-25.569-44.289h51.138Z" transform="translate(219.3 -4329.641)" fill="#aa2b56"/>
      <path id="Path_2240" data-name="Path 2240" d="M511.381,5033.6h-.005l-25.569-44.292H536.95Z" transform="translate(264.888 -4408.598)" fill="#999dfa"/>
      <path id="Path_2241" data-name="Path 2241" d="M559.745,5117.366l-25.569-44.288h51.138Z" transform="translate(242.092 -4448.079)" fill="#4950df"/>
      <path id="Path_2242" data-name="Path 2242" d="M585.31,5033.6H534.172l25.569-44.292Z" transform="translate(242.094 -4408.598)" fill="#6f75f7"/>
      <path id="Path_2243" data-name="Path 2243" d="M827.138,4949.832H776l25.569-44.289Z" transform="translate(128.123 -4369.121)" fill="#fab570"/>
      <path id="Path_2244" data-name="Path 2244" d="M778.767,4866.063H727.628l25.569-44.289,25.57,44.284Z" transform="translate(150.919 -4329.641)" fill="#ffe1c4"/>
      <path id="Path_2245" data-name="Path 2245" d="M585.314,4866.063H534.176l25.569-44.289Z" transform="translate(242.092 -4329.641)" fill="#912b91"/>
      <path id="Path_2246" data-name="Path 2246" d="M536.948,4949.832H485.8l25.569-44.289h0Z" transform="translate(264.89 -4369.121)" fill="#c896c8"/>
      <path id="Path_2247" data-name="Path 2247" d="M682.037,4866.063H630.9l25.568-44.289Z" transform="translate(196.507 -4329.641)" fill="#c46b89"/>
      <path id="Path_2248" data-name="Path 2248" d="M559.745,4949.832l-25.569-44.289h51.138Z" transform="translate(242.092 -4369.121)" fill="#b26bb2"/>
      <path id="Path_2249" data-name="Path 2249" d="M753.191,4949.832l-25.57-44.289H778.76Z" transform="translate(150.923 -4369.121)" fill="#ffd4a9"/>
      <path id="Path_2250" data-name="Path 2250" d="M801.564,5033.6,776,4989.307h51.143Z" transform="translate(128.123 -4408.598)" fill="#2b8080"/>
      <path id="Path_2251" data-name="Path 2251" d="M778.767,5033.6H727.628l25.57-44.292Z" transform="translate(150.919 -4408.598)" fill="#6ba6a6"/>
      <path id="Path_2252" data-name="Path 2252" d="M753.191,5117.366l-25.57-44.288H778.76v0Z" transform="translate(150.923 -4448.079)" fill="#96c0c0"/>
    </g>
  </g>
</svg>
