<svg xmlns="http://www.w3.org/2000/svg" width="284" height="144.346" viewBox="0 0 284 144.346">
  <g id="Group_5108" data-name="Group 5108" transform="translate(-1023.604 -298)">
    <rect id="Rectangle_200" data-name="Rectangle 200" width="284" height="143.301" transform="translate(1023.604 298)" fill="rgba(255,255,255,0)"/>
    <path id="Union_2" data-name="Union 2" d="M40.049,55.909a10.483,10.483,0,1,1,0-20.965H58.765a10.484,10.484,0,0,1,1.257-13.977H10.483A10.483,10.483,0,0,1,10.483,0H173.075a10.483,10.483,0,1,1,0,20.966H151.869a10.484,10.484,0,0,1,1.257,13.977H202.64a10.483,10.483,0,1,1,0,20.965Z" transform="translate(1047.166 381.042)" fill="#e6f0f0"/>
    <path id="Union_3" data-name="Union 3" d="M11.624,62a11.625,11.625,0,0,1,0-23.251H40.149a11.626,11.626,0,0,1-1.4-15.5H30.631A11.625,11.625,0,0,1,30.631,0h94.744a11.625,11.625,0,0,1,0,23.251H97.455a11.626,11.626,0,0,1-1.4,15.5h10.311a11.625,11.625,0,1,1,0,23.251Z" transform="translate(1285.603 406.214) rotate(180)" fill="#e6f0f0"/>
    <g id="Group_4957" data-name="Group 4957" transform="translate(1106.473 319.171)">
      <g id="Group_4956" data-name="Group 4956">
        <path id="Path_1963" data-name="Path 1963" d="M280.493,615.818c-9.555,16.644-18.867,32.949-27.679,48.466a5.881,5.881,0,0,1-5.513,3.093h-.014q-7.554-.027-15.113-.023l-12.653,0-12.95,0c-4.01,0-9.3,0-14.632.027h-.05a6.037,6.037,0,0,1-5.586-3.217c-10.49-18.454-19.233-33.756-27.519-48.159a6.6,6.6,0,0,1,.037-7.057c8.78-15.274,18.014-31.428,27.441-48.017a6.112,6.112,0,0,1,5.7-3.332h.023c9.124.023,18.431.032,27.665.032,9.074,0,18.335-.009,27.551-.032a6.1,6.1,0,0,1,5.714,3.309c9.271,16.319,18.555,32.573,27.6,48.319A6.168,6.168,0,0,1,280.493,615.818Z" transform="translate(-157.779 -557.6)" fill="#dcefef"/>
      </g>
    </g>
    <path id="Union_1" data-name="Union 1" d="M6.506,34.7a6.506,6.506,0,1,1,0-13.011h3.956a6.506,6.506,0,0,1,.982-8.853A6.507,6.507,0,0,1,12.962,0h54a6.506,6.506,0,0,1,0,13.011H33.541a6.507,6.507,0,0,1,.782,8.675h45.23a6.506,6.506,0,0,1,0,13.011Z" transform="translate(1147.473 305.545)" fill="#e6f0f0"/>
    <g id="Group_4955" data-name="Group 4955" transform="translate(1097.651 310.613)">
      <path id="Path_1961" data-name="Path 1961" d="M711.114,387.013c-4.251-.03-8.916-.044-14.682-.044q-4.4,0-8.8.007t-8.788.007q-4.367,0-8.733-.007t-8.742-.006c-5.742,0-10.387.014-14.619.044H646.7a2.777,2.777,0,0,1-2.9-1.685c-9.757-16.963-20.332-35.256-32.33-55.925a2.726,2.726,0,0,1,.056-3.271c10.521-18.116,21.4-36.93,32.335-55.921a2.445,2.445,0,0,1,2.521-1.535q16.208.024,32.4.024,16.31,0,32.624-.024a2.444,2.444,0,0,1,2.549,1.5c11.5,19.973,22.078,38.265,32.339,55.922a2.887,2.887,0,0,1,0,3.433c-12.3,21.2-22.548,38.928-32.239,55.777a2.776,2.776,0,0,1-2.888,1.71ZM650.985,272.346a6.173,6.173,0,0,0-5.761,3.371c-9.533,16.767-18.865,33.1-27.74,48.536a6.665,6.665,0,0,0-.04,7.133c8.375,14.562,17.215,30.032,27.821,48.684a6.1,6.1,0,0,0,5.646,3.254h.048c5.395-.027,10.739-.031,14.793-.031l13.095,0,12.787,0q7.639,0,15.28.021h.013a5.942,5.942,0,0,0,5.573-3.124c8.91-15.688,18.323-32.172,27.98-48.993a6.233,6.233,0,0,0,.023-6.665c-9.141-15.916-18.529-32.35-27.9-48.843a6.17,6.17,0,0,0-5.776-3.344c-9.313.021-18.675.032-27.849.032-9.335,0-18.745-.011-27.968-.033Z" transform="translate(-610.951 -268.675)" fill="#2b8080"/>
      <g id="mark_email_read_black_24dp_1_" data-name="mark_email_read_black_24dp (1)" transform="translate(42.953 35.982)">
        <rect id="Rectangle_207" data-name="Rectangle 207" width="50" height="50" fill="none"/>
        <path id="Path_2035" data-name="Path 2035" d="M40.129,4H6.237A4.231,4.231,0,0,0,2.021,8.237L2,33.656a4.249,4.249,0,0,0,4.237,4.237H23.183V33.656H6.237V12.473L23.183,23.065,40.129,12.473V23.065h4.237V8.237A4.249,4.249,0,0,0,40.129,4ZM23.183,18.828,6.237,8.237H40.129Zm11.312,23.3L27,34.63l2.987-2.987,4.491,4.491,8.982-8.982,3.029,2.987Z" transform="translate(1.817 4.054)" fill="#2b8080"/>
      </g>
    </g>
    <g id="Group_4958" data-name="Group 4958" transform="translate(1227.83 416.307)">
      <g id="Group_4956-2" data-name="Group 4956">
        <path id="Path_1963-2" data-name="Path 1963" d="M186.046,571.011c-2.2,3.834-4.346,7.59-6.376,11.164a1.355,1.355,0,0,1-1.27.713h0q-1.74-.006-3.481-.005h-5.9c-.924,0-2.142,0-3.371.006h-.012a1.391,1.391,0,0,1-1.287-.741c-2.416-4.251-4.43-7.776-6.339-11.094a1.521,1.521,0,0,1,.008-1.626c2.023-3.518,4.15-7.239,6.321-11.061a1.408,1.408,0,0,1,1.313-.767h.005c2.1.005,4.246.007,6.373.007,2.09,0,4.224,0,6.346-.007a1.406,1.406,0,0,1,1.316.762c2.136,3.759,4.274,7.5,6.358,11.13A1.421,1.421,0,0,1,186.046,571.011Z" transform="translate(-157.779 -557.6)" fill="#e6f0f0" stroke="#96c0c0" stroke-width="1.5"/>
      </g>
    </g>
    <g id="Group_4963" data-name="Group 4963" transform="translate(1235.945 305.545)">
      <g id="Group_4956-3" data-name="Group 4956">
        <path id="Path_1963-3" data-name="Path 1963" d="M171.745,564.226c-1.087,1.894-2.147,3.75-3.15,5.516a.669.669,0,0,1-.627.352h0q-.86,0-1.72,0h-2.914c-.456,0-1.058,0-1.665,0h-.006a.687.687,0,0,1-.636-.366c-1.194-2.1-2.189-3.842-3.132-5.481a.751.751,0,0,1,0-.8c1-1.738,2.05-3.577,3.123-5.465a.7.7,0,0,1,.649-.379h0c1.038,0,2.1,0,3.149,0,1.033,0,2.087,0,3.136,0a.7.7,0,0,1,.65.376c1.055,1.857,2.112,3.707,3.141,5.5A.7.7,0,0,1,171.745,564.226Z" transform="translate(-157.779 -557.6)" fill="#e6f0f0"/>
      </g>
    </g>
    <g id="Group_4960" data-name="Group 4960" transform="translate(1295.479 382.944) rotate(90)">
      <g id="Group_4956-4" data-name="Group 4956" transform="translate(0)">
        <path id="Path_1963-4" data-name="Path 1963" d="M11.06,5.247c-.861,1.5-1.7,2.97-2.495,4.368a.53.53,0,0,1-.5.279h0l-1.362,0H4.4c-.361,0-.838,0-1.319,0h0a.544.544,0,0,1-.5-.29C1.625,7.942.837,6.562.091,5.264a.6.6,0,0,1,0-.636C.885,3.251,1.718,1.8,2.567.3A.551.551,0,0,1,3.081,0h0c.822,0,1.661,0,2.494,0S7.229,0,8.06,0a.55.55,0,0,1,.515.3c.836,1.471,1.672,2.936,2.488,4.355A.556.556,0,0,1,11.06,5.247Z" fill="#2b8080"/>
      </g>
    </g>
    <g id="Group_4959" data-name="Group 4959" transform="translate(1073.985 344.604)">
      <g id="Group_4956-5" data-name="Group 4956">
        <path id="Path_1963-5" data-name="Path 1963" d="M174.181,565.382c-1.277,2.225-2.522,4.4-3.7,6.478a.786.786,0,0,1-.737.413h0q-1.01,0-2.02,0H164.3c-.536,0-1.243,0-1.956,0h-.007a.807.807,0,0,1-.747-.43c-1.4-2.467-2.571-4.512-3.678-6.437a.882.882,0,0,1,0-.943c1.174-2.042,2.408-4.2,3.668-6.418a.817.817,0,0,1,.762-.445h0c1.22,0,2.464,0,3.7,0,1.213,0,2.451,0,3.683,0a.816.816,0,0,1,.764.442c1.239,2.181,2.48,4.354,3.689,6.458A.825.825,0,0,1,174.181,565.382Z" transform="translate(-157.779 -557.6)" fill="#e6f0f0" stroke="#2b8080" stroke-width="1"/>
      </g>
    </g>
  </g>
</svg>
