<svg xmlns="http://www.w3.org/2000/svg" width="441" height="167.982" viewBox="0 0 441 167.982">
  <g id="Group_5108" data-name="Group 5108" transform="translate(-1582 18020.982)">
    <path id="Path_2231" data-name="Path 2231" d="M581.063,423.214H327.87a12.222,12.222,0,0,1-12.208-12.208V314.93a12.222,12.222,0,0,1,12.208-12.208H581.063a12.222,12.222,0,0,1,12.208,12.208v96.075a12.222,12.222,0,0,1-12.208,12.209Z" transform="translate(1301.778 -18307.541)" fill="#fff" opacity="0.21"/>
    <path id="Path_2232" data-name="Path 2232" d="M581.063,423.214H327.87a12.222,12.222,0,0,1-12.208-12.208V314.93a12.222,12.222,0,0,1,12.208-12.208H581.063a12.222,12.222,0,0,1,12.208,12.208v96.075a12.222,12.222,0,0,1-12.208,12.209ZM327.87,303.783a11.147,11.147,0,0,0-11.147,11.147v96.075a11.147,11.147,0,0,0,11.147,11.147H581.063a11.147,11.147,0,0,0,11.147-11.147V374.78a71,71,0,0,0-71-71Z" transform="translate(1301.778 -18307.541)" fill="#e6e6e6" opacity="0.21"/>
    <ellipse id="Ellipse_30" data-name="Ellipse 30" cx="1.302" cy="1.872" rx="1.302" ry="1.872" transform="matrix(0.144, -0.99, 0.99, 0.144, 1605.722, -17863.125)" fill="#fff"/>
    <ellipse id="Ellipse_31" data-name="Ellipse 31" cx="1.302" cy="1.872" rx="1.302" ry="1.872" transform="matrix(0.144, -0.99, 0.99, 0.144, 1617.902, -17864.313)" fill="#3f3d56"/>
    <ellipse id="Ellipse_32" data-name="Ellipse 32" cx="1.302" cy="1.872" rx="1.302" ry="1.872" transform="matrix(0.144, -0.99, 0.99, 0.144, 1602.387, -17872.986)" fill="#ff6584"/>
    <ellipse id="Ellipse_33" data-name="Ellipse 33" cx="1.183" cy="0.823" rx="1.183" ry="0.823" transform="matrix(0.008, -1, 1, 0.008, 1599.331, -17876.604)" fill="#e6e6e6"/>
    <ellipse id="Ellipse_34" data-name="Ellipse 34" cx="1.183" cy="0.823" rx="1.183" ry="0.823" transform="matrix(0.008, -1, 1, 0.008, 1597.536, -17884.127)" fill="#3f3d56"/>
    <ellipse id="Ellipse_35" data-name="Ellipse 35" cx="1.183" cy="0.823" rx="1.183" ry="0.823" transform="matrix(0.008, -1, 1, 0.008, 1611.494, -17870.887)" fill="#e6e6e6"/>
    <ellipse id="Ellipse_36" data-name="Ellipse 36" cx="1.183" cy="0.823" rx="1.183" ry="0.823" transform="matrix(0.008, -1, 1, 0.008, 1605.607, -17867.947)" fill="#ff6584"/>
    <ellipse id="Ellipse_37" data-name="Ellipse 37" cx="1.183" cy="0.823" rx="1.183" ry="0.823" transform="matrix(0.008, -1, 1, 0.008, 1613.801, -17862.516)" fill="#3f3d56"/>
    <ellipse id="Ellipse_38" data-name="Ellipse 38" cx="1.66" cy="2.386" rx="1.66" ry="2.386" transform="translate(1898.848 -18016.865) rotate(-75.779)" fill="#fff" opacity="0.21"/>
    <ellipse id="Ellipse_39" data-name="Ellipse 39" cx="1.66" cy="2.386" rx="1.66" ry="2.386" transform="translate(1883.248 -18016.965) rotate(-75.779)" fill="#3f3d56" opacity="0.21"/>
    <ellipse id="Ellipse_40" data-name="Ellipse 40" cx="1.66" cy="2.386" rx="1.66" ry="2.386" transform="translate(1901.775 -18003.922) rotate(-75.779)" fill="#ff6584" opacity="0.21"/>
    <ellipse id="Ellipse_41" data-name="Ellipse 41" cx="1.508" cy="1.049" rx="1.508" ry="1.049" transform="translate(1908.193 -17998.215) rotate(-83.624)" fill="#e6e6e6" opacity="0.21"/>
    <ellipse id="Ellipse_42" data-name="Ellipse 42" cx="1.508" cy="1.049" rx="1.508" ry="1.049" transform="translate(1909.476 -17988.439) rotate(-83.624)" fill="#3f3d56" opacity="0.21"/>
    <ellipse id="Ellipse_43" data-name="Ellipse 43" cx="1.508" cy="1.049" rx="1.508" ry="1.049" transform="translate(1893.527 -18007.068) rotate(-83.624)" fill="#e6e6e6" opacity="0.21"/>
    <ellipse id="Ellipse_44" data-name="Ellipse 44" cx="1.508" cy="1.049" rx="1.508" ry="1.049" transform="translate(1901.378 -18010.018) rotate(-83.624)" fill="#ff6584" opacity="0.21"/>
    <ellipse id="Ellipse_45" data-name="Ellipse 45" cx="1.508" cy="1.049" rx="1.508" ry="1.049" transform="translate(1891.706 -18017.984) rotate(-83.624)" fill="#3f3d56" opacity="0.18"/>
    <path id="Path_2233" data-name="Path 2233" d="M444.141,383.566a38.852,38.852,0,0,1-9.969,26.041v.005A39.891,39.891,0,0,1,431.3,412.5a38.449,38.449,0,0,1-3.238,2.627q-1.178.86-2.42,1.624-1.473.916-3.031,1.693-1.155.581-2.357,1.083a39.161,39.161,0,0,1-23.822,2.065,37.389,37.389,0,0,1-3.907-1.115c-.494-.165-.987-.345-1.476-.536a38.486,38.486,0,0,1-8.36-4.485,39,39,0,1,1,61.456-31.891Z" transform="translate(1274.571 -18330.094)" fill="#f2f2f2"/>
    <path id="Path_2234" data-name="Path 2234" d="M707.31,361.318H639.9a2.123,2.123,0,1,1,0-4.246H707.31a2.123,2.123,0,1,1,0,4.246Z" transform="translate(1128.137 -18336.84)" fill="#2b8080" opacity="0.07"/>
    <path id="Path_2235" data-name="Path 2235" d="M707.31,423.5H639.9a2.123,2.123,0,1,1,0-4.246H707.31a2.123,2.123,0,1,1,0,4.246Z" transform="translate(1128.137 -18370.361)" fill="#e6e6e6" opacity="0.21"/>
    <path id="Path_2236" data-name="Path 2236" d="M707.31,485.69H639.9a2.123,2.123,0,1,1,0-4.246H707.31a2.123,2.123,0,1,1,0,4.246Z" transform="translate(1128.137 -18403.885)" fill="#e6e6e6" opacity="0.21"/>
    <path id="Path_2237" data-name="Path 2237" d="M408.6,572.834c-7.61-10.123-12.009-21.442-12.153-34.348a2.785,2.785,0,0,1,1.694-3.55l25.94-9.178a2.785,2.785,0,0,1,3.55,1.694L439.78,561.8a2.785,2.785,0,0,1-1.694,3.55l-25.94,9.178A2.785,2.785,0,0,1,408.6,572.834Z" transform="translate(1258.317 -18427.688)" fill="#e6e6e6"/>
    <path id="Path_2238" data-name="Path 2238" d="M410.036,564.928c-4.577-4.628-6.536-12.882-7.813-22.082a2.608,2.608,0,0,1,1.587-3.325l22.293-7.888a2.608,2.608,0,0,1,3.325,1.587l10.815,30.565a2.608,2.608,0,0,1-1.587,3.325L424.845,572A11.616,11.616,0,0,1,410.036,564.928Z" transform="translate(1255.196 -18430.859)" fill="#fff"/>
    <path id="Path_2239" data-name="Path 2239" d="M440.027,568.46l-17.366,6.2a1.106,1.106,0,0,1-.744-2.084l17.366-6.2a1.106,1.106,0,0,1,.744,2.084Z" transform="translate(1244.895 -18449.635)" fill="#2b8080"/>
    <path id="Path_2240" data-name="Path 2240" d="M422.057,566.553l-3.82,1.364a1.106,1.106,0,1,1-.744-2.084l3.82-1.364a1.106,1.106,0,0,1,.744,2.084Z" transform="translate(1247.28 -18448.605)" fill="#2b8080"/>
    <path id="Path_2241" data-name="Path 2241" d="M447.121,588.336l-17.366,6.2a1.106,1.106,0,0,1-.744-2.084l17.366-6.2a1.106,1.106,0,0,1,.744,2.084Z" transform="translate(1241.071 -18460.348)" fill="#2b8080"/>
    <path id="Path_2242" data-name="Path 2242" d="M443.574,578.4l-17.366,6.2a1.106,1.106,0,0,1-.744-2.084l17.366-6.2a1.106,1.106,0,1,1,.744,2.084Z" transform="translate(1242.983 -18454.992)" fill="#2b8080"/>
    <path id="Path_2243" data-name="Path 2243" d="M431.306,381.113c.566,4.563,3.727,8.325,8.325,8.325a8.325,8.325,0,0,0,8.325-8.325c0-4.6-3.747-7.9-8.325-8.325C434.773,372.337,430.579,375.255,431.306,381.113Z" transform="translate(1239.482 -18345.287)" fill="#2f2e41"/>
    <path id="Path_2244" data-name="Path 2244" d="M447.219,511.283a39.287,39.287,0,0,1-15.361-.409C434.252,509.552,441.514,510.365,447.219,511.283Z" transform="translate(1239.14 -18419.375)" fill="#2f2e41"/>
    <path id="Path_2245" data-name="Path 2245" d="M393.017,533.038l4-9.664,3.151,1.75-1.9,9.831a3.5,3.5,0,1,1-5.247-1.917Z" transform="translate(1260.942 -18426.488)" fill="#ffb6b6"/>
    <path id="Path_2246" data-name="Path 2246" d="M437.251,448.341v.005c-.143,3.365-.34,6.566-.5,9.029a39.16,39.16,0,0,1-23.822,2.065,37.376,37.376,0,0,1-3.907-1.115,2.411,2.411,0,0,1,.573-.271c1.911-.648.021-1.237.037-1.853a29.733,29.733,0,0,1,1.481-7.543l-3.567,9.13-1.858,4.745s.064,4.1-1.115,2.845-1.1,2.8-1.1,2.8a3.692,3.692,0,0,0-.934.966.819.819,0,0,0-.111.568v.005a.709.709,0,0,0,.3.372c.8.541-.35,1.975-.86,2.543-.138.154-.228.244-.228.244l-4.9-.35v-.1c.021-.579.154-3.625.913-4.353a2.164,2.164,0,0,0,.425-2.07s2.176-1.927.717-3.493c-.584-.632-.324-4.374.393-9.215,1.566-10.68,5.319-26.71,6.943-26.482a9.01,9.01,0,0,1,6.428-6.869l5.292-1.454.945-3.732h7.453l1.3,2.452,5.43,2.452.069.032.17.074.064.2s-.005.005,0,.005l3.02,9.485C437.649,431.031,437.6,440.151,437.251,448.341Z" transform="translate(1258.074 -18367.941)" fill="#2b8080"/>
    <path id="Path_2247" data-name="Path 2247" d="M506.266,516.762l-5.046-9.16,3.335-1.366,6.486,7.628a3.5,3.5,0,1,1-4.775,2.9Z" transform="translate(1201.749 -18417.25)" fill="#ffb6b6"/>
    <path id="Path_2248" data-name="Path 2248" d="M475.344,425.25c.9,1.613,9.107,5.761,7.684,9.926,0,0,7.712,24.129,8.715,23.971s1.982,2.335,1.982,2.335-.213,1.627.413.951.476,1.1.476,1.1-.3,1.564.494,1.139-.25,2.568-.25,2.568l-4.773,2.247-.907-1.35s-1.938-.369-1.026-.661-.858-1.276-.858-1.276a3.8,3.8,0,0,1-1.593-3.342c.258-2.084-4.8-6.18-4.8-6.18a46.475,46.475,0,0,1-5.377-21.2Z" transform="translate(1215.698 -18373.592)" fill="#2b8080"/>
    <circle id="Ellipse_46" data-name="Ellipse 46" cx="7.382" cy="7.382" r="7.382" transform="translate(1672.651 -17970.119)" fill="#ffb6b6"/>
    <path id="Path_2249" data-name="Path 2249" d="M434.508,382.851c.234,1.6,1.6,3.842,1.281,3.842s-2.6-6.613-.32-7.044c1.651-.313,2.02-.038,3.564-.708l-.218.2c1.021.743,2.443.285,3.608-.2s2.587-.938,3.612-.2a5.757,5.757,0,0,1,1.316,1.956c.4.688,1.14,1.338,1.9,1.127a1.506,1.506,0,0,0,.961-1.489c0-.634-.829-1.237-.551-1.806.824-1.686.083-2.834-1.713-3.628q-.98-.149-1.96-.3a5.557,5.557,0,0,1,1.229-1.236,2.809,2.809,0,0,0-.993-1.271,3.116,3.116,0,0,0-1.774-.256l-4.05.211a7.145,7.145,0,0,0-2.926.57,5.772,5.772,0,0,0-2.376,2.827C433.909,378.007,434.1,380.063,434.508,382.851Z" transform="translate(1237.881 -18344.783)" fill="#2f2e41"/>
    <path id="Path_2250" data-name="Path 2250" d="M705.126,384.182H594.111a.461.461,0,0,1,0-.922H705.126a.461.461,0,0,1,0,.922Z" transform="translate(1151.923 -18350.957)" fill="#e6e6e6" opacity="0.21"/>
    <path id="Path_2251" data-name="Path 2251" d="M705.126,446.182H594.111a.461.461,0,0,1,0-.922H705.126a.461.461,0,0,1,0,.922Z" transform="translate(1151.923 -18384.379)" fill="#e6e6e6" opacity="0.21"/>
    <path id="Path_2252" data-name="Path 2252" d="M705.126,508.182H594.111a.461.461,0,0,1,0-.922H705.126a.461.461,0,0,1,0,.922Z" transform="translate(1151.923 -18417.801)" fill="#e6e6e6" opacity="0.21"/>
    <path id="Path_2253" data-name="Path 2253" d="M846.662,417.15a17.053,17.053,0,0,1-11.083-4.093,15.935,15.935,0,0,1-3.263-4.557,10.422,10.422,0,0,1-.331-9,11.962,11.962,0,0,1-1.975,1.62l-.361.24-.021-.433c-.014-.282-.021-.562-.021-.834,0-1.6,1.212-3.228.653-4.709-2.356-6.242-9.827-12.445,1-22.106,1-.894-.336-2.68-.336-4.033,0-13.251,18.728-36.175,24.036-24.031,6.546,14.977,17.824,13.375,22.82,16.468l.072.219-.214.086a12.881,12.881,0,0,1-3.422.91,16.321,16.321,0,0,0,3.816.32l.2-.007.048.193a24.135,24.135,0,0,1,.717,5.842v.213a10.644,10.644,0,0,0,3.516,7.937,17.093,17.093,0,0,1,5.576,12.613c0,2.809-1.909,6.5-3.511,9.1a5.143,5.143,0,0,1-3.776,2.418,5.023,5.023,0,0,1-4.054-1.309,16.607,16.607,0,0,0,2.929,4.147l.219.225-.271.158a17.041,17.041,0,0,1-8.591,2.32h-.177a16.635,16.635,0,0,0-11.934,4.871A17.183,17.183,0,0,1,846.662,417.15Z" transform="translate(1026.911 -18328.596)" fill="#e6e6e6" opacity="0.21"/>
    <path id="Path_2254" data-name="Path 2254" d="M857.517,490.384a.307.307,0,0,1-.3-.263,102.69,102.69,0,0,1-.143-21.53c1.059-11.3,4.458-27.572,14.642-40.937a.307.307,0,0,1,.488.372c-10.1,13.25-13.468,29.4-14.519,40.622a102,102,0,0,0,.14,21.387.307.307,0,0,1-.3.35Z" transform="translate(1010.188 -18374.822)" fill="#3f3d56" opacity="0.07"/>
    <path id="Path_2255" data-name="Path 2255" d="M876.291,459.767a.307.307,0,0,1-.181-.555,42.271,42.271,0,0,1,9.332-4.75c5.149-1.885,12.978-3.594,21.038-1.029a.307.307,0,1,1-.186.584c-7.9-2.513-15.582-.832-20.641,1.02a41.572,41.572,0,0,0-9.182,4.671.306.306,0,0,1-.18.059Z" transform="translate(999.725 -18388.084)" fill="#3f3d56" opacity="0.07"/>
    <path id="Path_2256" data-name="Path 2256" d="M846.2,392.46a.307.307,0,0,1,.54-.22,42.273,42.273,0,0,1,5.41,8.966c2.251,5,4.519,12.685,2.541,20.909a.307.307,0,1,1-.6-.143c1.938-8.055-.292-15.6-2.5-20.514a41.576,41.576,0,0,0-5.32-8.822A.306.306,0,0,1,846.2,392.46Z" transform="translate(1015.784 -18355.738)" fill="#3f3d56" opacity="0.07"/>
    <path id="Path_2257" data-name="Path 2257" d="M267.939,409.936A16.636,16.636,0,0,0,256,405.065h-.177a17.041,17.041,0,0,1-8.591-2.32l-.271-.158.219-.225a16.61,16.61,0,0,0,2.929-4.147,5.023,5.023,0,0,1-4.054,1.309,5.143,5.143,0,0,1-3.776-2.418c-1.6-2.6-3.511-6.286-3.511-9.1a17.093,17.093,0,0,1,5.577-12.613,10.644,10.644,0,0,0,3.516-7.937v-.213a24.147,24.147,0,0,1,.717-5.845l.047-.189.2.007a16.321,16.321,0,0,0,3.816-.32,12.881,12.881,0,0,1-3.422-.91l-.214-.086.072-.219c5-3.093,16.274-1.491,22.82-16.468,5.308-12.144,24.036,10.78,24.036,24.031,0,1.352-1.338,3.139-.336,4.033,10.828,9.66,3.357,15.864,1,22.106-.559,1.481.653,3.107.653,4.709,0,.272-.007.553-.021.834l-.021.433-.361-.24a11.96,11.96,0,0,1-1.975-1.62,10.422,10.422,0,0,1-.331,9,15.933,15.933,0,0,1-3.263,4.557,17.038,17.038,0,0,1-23.345-1.122Z" transform="translate(1343.226 -18327.52)" fill="#e6e6e6"/>
    <path id="Path_2258" data-name="Path 2258" d="M324.134,488.385a.307.307,0,0,0,.3-.263,102.689,102.689,0,0,0,.143-21.53c-1.059-11.3-4.458-27.572-14.642-40.937a.307.307,0,1,0-.488.372c10.1,13.25,13.468,29.4,14.519,40.622a101.99,101.99,0,0,1-.14,21.387.307.307,0,0,0,.3.35Z" transform="translate(1305.16 -18373.746)" fill="#3f3d56"/>
    <path id="Path_2259" data-name="Path 2259" d="M287.792,457.768a.307.307,0,0,0,.181-.555,42.271,42.271,0,0,0-9.332-4.751c-5.149-1.885-12.978-3.594-21.038-1.029a.307.307,0,1,0,.186.584c7.9-2.513,15.582-.832,20.641,1.02a41.579,41.579,0,0,1,9.182,4.671A.305.305,0,0,0,287.792,457.768Z" transform="translate(1333.191 -18387.006)" fill="#3f3d56"/>
    <path id="Path_2260" data-name="Path 2260" d="M342.987,390.461a.307.307,0,0,0-.54-.22,42.273,42.273,0,0,0-5.41,8.966c-2.251,5-4.519,12.685-2.541,20.91a.307.307,0,0,0,.6-.143c-1.937-8.055.292-15.6,2.5-20.514a41.579,41.579,0,0,1,5.32-8.822.306.306,0,0,0,.071-.175Z" transform="translate(1292.034 -18354.66)" fill="#3f3d56"/>
    <line id="Line_50" data-name="Line 50" x2="221" transform="translate(1802 -17939)" fill="none" stroke="#ebecf0" stroke-width="1"/>
  </g>
</svg>
