<svg id="undraw_learning_re_32qv" xmlns="http://www.w3.org/2000/svg" width="275.732" height="162.941" viewBox="0 0 275.732 162.941">
  <path id="Path_2188" data-name="Path 2188" d="M203.628,96.937V9.67a8.343,8.343,0,0,1,8.334-8.333H384.995a8.343,8.343,0,0,1,8.334,8.333V96.937a8.343,8.343,0,0,1-8.334,8.334H211.962a8.343,8.343,0,0,1-8.334-8.334ZM392.483,9.67a7.488,7.488,0,0,0-7.488-7.488H211.962a7.489,7.489,0,0,0-7.489,7.489V96.937a7.489,7.489,0,0,0,7.489,7.489H329.656A62.827,62.827,0,0,0,392.483,41.6V9.67h0Z" transform="translate(-117.596 -0.772)" fill="#e6e6e6"/>
  <g id="Group_5092" data-name="Group 5092" transform="translate(44.802 16.438)">
    <path id="Path_2189" data-name="Path 2189" d="M208.231,38.907H111.254a5.219,5.219,0,0,0-5.214,5.214V79.745a5.219,5.219,0,0,0,5.214,5.214h96.977a5.219,5.219,0,0,0,5.214-5.214V44.121a5.219,5.219,0,0,0-5.214-5.214Z" transform="translate(-106.041 -38.907)" fill="#fff"/>
    <path id="Path_2190" data-name="Path 2190" d="M208.231,38.907H111.254a5.219,5.219,0,0,0-5.214,5.214V79.745a5.219,5.219,0,0,0,5.214,5.214h96.977a5.219,5.219,0,0,0,5.214-5.214V44.121a5.219,5.219,0,0,0-5.214-5.214ZM212.9,79.745a4.669,4.669,0,0,1-4.665,4.666H111.254a4.669,4.669,0,0,1-4.666-4.666V44.121a4.669,4.669,0,0,1,4.666-4.665h96.977a4.669,4.669,0,0,1,4.665,4.665Z" transform="translate(-106.041 -38.907)" fill="#3f3d56"/>
  </g>
  <path id="Path_2191" data-name="Path 2191" d="M127.107,77.336H213.3a1.479,1.479,0,0,1,1.479,1.479h0a1.479,1.479,0,0,1-1.479,1.479H127.107a1.479,1.479,0,0,1-1.479-1.479h0A1.479,1.479,0,0,1,127.107,77.336Z" transform="translate(-72.551 -44.662)" fill="#2b8080"/>
  <path id="Path_2192" data-name="Path 2192" d="M127.107,100.336h31.265a1.479,1.479,0,0,1,1.479,1.479h0a1.479,1.479,0,0,1-1.479,1.479H127.107a1.479,1.479,0,0,1-1.479-1.479h0A1.479,1.479,0,0,1,127.107,100.336Z" transform="translate(-72.551 -57.945)" fill="#2b8080"/>
  <path id="Path_2193" data-name="Path 2193" d="M491.42,62.023H432.271a1.69,1.69,0,0,1,0-3.38H491.42a1.69,1.69,0,0,1,0,3.38Z" transform="translate(-248.663 -33.867)" fill="#e6e6e6"/>
  <path id="Path_2194" data-name="Path 2194" d="M488.462,152.814H406.041v-.422c27.138,4.162,54.639,3.819,82.421,0Z" transform="translate(-234.491 -88.007)" fill="#e6e6e6"/>
  <path id="Path_2195" data-name="Path 2195" d="M491.42,113.024H432.271a1.69,1.69,0,0,1,0-3.38H491.42a1.69,1.69,0,0,1,0,3.38Z" transform="translate(-248.663 -63.32)" fill="#e6e6e6"/>
  <rect id="Rectangle_223" data-name="Rectangle 223" width="82.421" height="0.422" transform="translate(171.972 70.3)" fill="#e6e6e6"/>
  <path id="Path_2196" data-name="Path 2196" d="M491.42,86.716H432.271a1.69,1.69,0,0,1,0-3.38H491.42a1.69,1.69,0,0,1,0,3.38Z" transform="translate(-248.663 -48.127)" fill="#e6e6e6"/>
  <path id="Path_2197" data-name="Path 2197" d="M489.462,178.247c-28.449-1.935-56.079-2.243-82.421,0v-.422h82.421Z" transform="translate(-235.068 -102.033)" fill="#e6e6e6"/>
  <g id="Group_5093" data-name="Group 5093" transform="translate(132.989 49.492)">
    <path id="Path_2198" data-name="Path 2198" d="M328.14,136.989l-3.477-1.647a25.538,25.538,0,0,1,3.313,7.572,25.514,25.514,0,0,1,4.687-6.807l-3.675.945c2.264-11.1,10.782-19.065,20.535-19.065v-.845c-10.188,0-19.071,8.3-21.383,19.847Z" transform="translate(-320.484 -117.142)" fill="#3f3d56"/>
    <path id="Path_2199" data-name="Path 2199" d="M338.432,199.522h-21.97a1.69,1.69,0,0,1,0-3.38h21.97a1.69,1.69,0,0,1,0,3.38Z" transform="translate(-314.772 -162.765)" fill="#2b8080"/>
  </g>
  <g id="Group_5094" data-name="Group 5094" transform="translate(94.482 37.744)">
    <circle id="Ellipse_27" data-name="Ellipse 27" cx="5.915" cy="5.915" r="5.915" fill="#2b8080"/>
    <path id="Path_2200" data-name="Path 2200" d="M236.62,95.026a.64.64,0,0,0-.867.227l-2.109,4.178a9.161,9.161,0,0,0-2.134-2.314.637.637,0,0,0-.867.227.65.65,0,0,0,.227.867,7.63,7.63,0,0,1,2.248,2.9.637.637,0,0,0,1.094,0l2.635-5.221a.649.649,0,0,0-.227-.867h0Z" transform="translate(-227.629 -92.574)" fill="#fff"/>
  </g>
  <g id="Group_5095" data-name="Group 5095" transform="translate(165.461 20.422)">
    <circle id="Ellipse_28" data-name="Ellipse 28" cx="5.915" cy="5.915" r="5.915" fill="#2b8080"/>
    <path id="Path_2201" data-name="Path 2201" d="M404.62,54.026a.64.64,0,0,0-.867.227l-2.109,4.178a9.162,9.162,0,0,0-2.134-2.314.637.637,0,0,0-.867.227.65.65,0,0,0,.227.867,7.629,7.629,0,0,1,2.248,2.9.637.637,0,0,0,1.094,0l2.635-5.221a.649.649,0,0,0-.227-.867h0Z" transform="translate(-395.629 -51.574)" fill="#fff"/>
  </g>
  <g id="Group_5096" data-name="Group 5096" transform="translate(250.382 30.139)">
    <circle id="Ellipse_29" data-name="Ellipse 29" cx="5.915" cy="5.915" r="5.915" fill="#2b8080"/>
    <path id="Path_2202" data-name="Path 2202" d="M605.62,77.026a.64.64,0,0,0-.867.227l-2.109,4.178a9.162,9.162,0,0,0-2.134-2.314.637.637,0,0,0-.867.227.65.65,0,0,0,.227.867,7.63,7.63,0,0,1,2.248,2.9.637.637,0,0,0,1.094,0l2.635-5.221a.649.649,0,0,0-.227-.867h0Z" transform="translate(-596.629 -74.574)" fill="#fff"/>
  </g>
  <g id="Group_5098" data-name="Group 5098" transform="translate(106.475 53.657)">
    <path id="Path_2203" data-name="Path 2203" d="M269.265,146.4H255.018a1.606,1.606,0,0,1-1.6-1.6,24.124,24.124,0,0,1,0-16.191,1.606,1.606,0,0,1,1.6-1.6h14.247a1.606,1.606,0,0,1,1.6,1.6V144.8a1.606,1.606,0,0,1-1.6,1.6Z" transform="translate(-252.015 -127)" fill="#e6e6e6"/>
    <path id="Path_2204" data-name="Path 2204" d="M260.636,128.131a4.179,4.179,0,0,0-4.179,4.179v12.8a1.47,1.47,0,0,0,1.47,1.47h7.879a7.151,7.151,0,0,0,7.151-7.151V129.6a1.47,1.47,0,0,0-1.47-1.47H260.636Z" transform="translate(-254.58 -127.653)" fill="#fff"/>
    <g id="Group_5097" data-name="Group 5097" transform="translate(2.89 4.573)">
      <path id="Path_2205" data-name="Path 2205" d="M274.3,138.434h-6.67a.3.3,0,1,1,0-.61h6.67a.3.3,0,0,1,0,.61Z" transform="translate(-263.748 -137.824)" fill="#e6e6e6"/>
      <path id="Path_2206" data-name="Path 2206" d="M274.3,153.827h-6.67a.3.3,0,1,1,0-.61h6.67a.3.3,0,0,1,0,.61Z" transform="translate(-263.748 -146.714)" fill="#e6e6e6"/>
      <path id="Path_2207" data-name="Path 2207" d="M272.989,146.135H259.16a.3.3,0,1,1,0-.61h13.829a.3.3,0,0,1,0,.61Z" transform="translate(-258.855 -142.272)" fill="#e6e6e6"/>
    </g>
    <path id="Path_2208" data-name="Path 2208" d="M284.391,160.085h-5.77a.3.3,0,1,1,0-.61h5.77a.3.3,0,1,1,0,.61Z" transform="translate(-267.203 -145.755)" fill="#e6e6e6"/>
  </g>
  <path id="Path_2209" data-name="Path 2209" d="M58.594,38.475c.375-1.731.486-.456,1.3-2.026-.56,2.029.474,1.364,1.847,2.955C71.394,40.918,72,37.612,75.573,37.713h.018a.979.979,0,0,0,.716-1.581c-1.17-1.549-2.46-3.938-1.239-5.442,2.162-2.665.257-8.13-.675-6.949,0-4.557-5.613-7.546-7.79-6.806-4.023,1.368-7.748,3.214-8.2,7.343-.07.645-.162,1.286-.277,1.924-.235,1.3-1.2,1.64-.871,2.913L58.3,30.176a9.381,9.381,0,0,1-.336,5.639,2.008,2.008,0,0,0,.631,2.66Z" transform="translate(-33.026 -9.715)" fill="#2f2e41"/>
  <circle id="b" cx="6.05" cy="6.05" r="6.05" transform="translate(29.566 10.545)" fill="#a0616a"/>
  <g id="Group_5099" data-name="Group 5099" transform="translate(23.411 140.474)">
    <path id="Path_2210" data-name="Path 2210" d="M61.993,346.517l3.115.074,1.737-14-4.6-.109Z" transform="translate(-59.213 -332.486)" fill="#a0616a"/>
    <path id="Path_2211" data-name="Path 2211" d="M68.881,361.906h0a.9.9,0,0,1-.834.953H61.863a5.585,5.585,0,0,0-3.09-3.5l-.171,3.5h-3.19l.387-5.626s-.853-3.01.919-4.549.337-1.324.337-1.324l.7-3.482,4.82.567.035,5.466,2.339,5.426,3.431,1.695a.966.966,0,0,1,.5.875h0Z" transform="translate(-55.412 -341.375)" fill="#2f2e41"/>
  </g>
  <g id="Group_5100" data-name="Group 5100" transform="translate(22.982 130.616)">
    <path id="Path_2212" data-name="Path 2212" d="M70.1,320.346l2.475,1.894,9.646-10.289-3.652-2.8Z" transform="translate(-63.467 -309.155)" fill="#a0616a"/>
    <path id="Path_2213" data-name="Path 2213" d="M65.843,338.518h0a.9.9,0,0,1-1.235.279l-5-3.642a5.585,5.585,0,0,0-.436-4.647l-2.2,2.727L54.4,331.356l3.626-4.319S59.1,324.1,61.443,323.9s1.052-.872,1.052-.872l2.614-2.4,3.562,3.3-3.19,4.439-1.3,5.763,1.775,3.391a.966.966,0,0,1-.109,1h0Z" transform="translate(-54.396 -315.78)" fill="#2f2e41"/>
  </g>
  <path id="Path_2214" data-name="Path 2214" d="M48.388,163.534c.188.77-.158,4.354.035,5.588.492,3.136,4.986,20.232,4.211,25.106-2.841,17.857,1.088,29.313,1.088,29.313H60.06l3.38-54.079,3.3,4.348,6.455,19.279-11.418,20.53,5.962,4.924,17.8-28.3-12.65-47.346-.764-2.859-17.091-.477.951,1.425-2.163,2.137a.081.081,0,0,1-.014.017c-.333.465-7.74,10.886-5.418,20.4h0Z" transform="translate(-27.685 -80.594)" fill="#2f2e41"/>
  <path id="Path_2215" data-name="Path 2215" d="M61.828,143.136c1.979.707,15.356-.023,19.082-.244l-.764-2.859-17.091-.477.951,1.425-2.163,2.137a.081.081,0,0,1-.014.017h0Z" transform="translate(-35.706 -80.595)" fill="#a0616a"/>
  <path id="Path_2216" data-name="Path 2216" d="M79.058,72.594h0l-.616,3.267-.149.783-3.274,6.721.43,9.853c.276,1.153-11.351-1.464-17.391,1.24l-4.7-22.485,4.767-10.363,3.731-2.073.622-2.487h7.9c.421,1.971-.035,2.942-.853,3.5l1.98,5.28,7.552,6.764h0Z" transform="translate(-30.814 -32.946)" fill="#2b8080"/>
  <g id="Group_5101" data-name="Group 5101" transform="translate(32.36 16.614)">
    <path id="Path_2217" data-name="Path 2217" d="M121.923,43.091h0a4.869,4.869,0,0,1-.766,2.168l-.423,8.117-3.857-.314.844-8.2a4.869,4.869,0,0,1-.252-2.286c.223-1.933,1.4-3.384,2.631-3.242s2.046,1.824,1.822,3.757h0Z" transform="translate(-99.857 -39.324)" fill="#a0616a"/>
    <path id="Path_2218" data-name="Path 2218" d="M83.288,63.756l.5,1.228s-7.351-.736-7.195,3.1c.134,3.275,13.972,16.254,14.633,16.557h0a3.271,3.271,0,0,0,4.589-2.435c3.116-8.039,3.762-15.286,2.338-21.871H93.931l-1.376,5.195-.077,3.951L90.25,74.235l-7.3-9.251.342-1.228h0Z" transform="translate(-76.594 -51.459)" fill="#2b8080"/>
  </g>
  <path id="Path_2219" data-name="Path 2219" d="M28.135,159.608a4.981,4.981,0,0,0,.217-2.342l3.086-7.721-3.717-1.361-2.73,7.979a4.981,4.981,0,0,0-1.213,2.015c-.621,1.891-.148,3.744,1.055,4.139s2.682-.818,3.3-2.709h0Z" transform="translate(-13.574 -85.577)" fill="#a0616a"/>
  <path id="Path_2220" data-name="Path 2220" d="M48.568,67.528S44,65.8,41.413,67.912c-1.069.872-5.794,6.881-6.522,14.971a6.561,6.561,0,0,1-.732,1.773c-1.5,3.657-4.084,5.342-5.183,8.469-.429,1.222.358,4.383.087,5.438-1.42,5.522-.908,8.67-.908,8.67l3.836,1.277,2.081-1.471L37.489,94.56,48.568,67.528Z" transform="translate(-16.208 -38.613)" fill="#2b8080"/>
  <g id="Group_5103" data-name="Group 5103" transform="translate(49.438 0)">
    <path id="Path_2221" data-name="Path 2221" d="M134.265,19.4H120.018a1.606,1.606,0,0,1-1.6-1.6,24.124,24.124,0,0,1,0-16.191,1.606,1.606,0,0,1,1.6-1.6h14.247a1.606,1.606,0,0,1,1.6,1.6V17.8a1.606,1.606,0,0,1-1.6,1.6Z" transform="translate(-117.015 0)" fill="#e6e6e6"/>
    <path id="Path_2222" data-name="Path 2222" d="M125.636,1.131a4.179,4.179,0,0,0-4.179,4.179v12.8a1.47,1.47,0,0,0,1.47,1.47h7.879a7.151,7.151,0,0,0,7.151-7.151V2.6a1.47,1.47,0,0,0-1.47-1.47H125.636Z" transform="translate(-119.58 -0.653)" fill="#fff"/>
    <g id="Group_5102" data-name="Group 5102" transform="translate(2.89 4.573)">
      <path id="Path_2223" data-name="Path 2223" d="M139.3,11.434h-6.67a.3.3,0,1,1,0-.61h6.67a.3.3,0,0,1,0,.61Z" transform="translate(-128.748 -10.825)" fill="#e6e6e6"/>
      <path id="Path_2224" data-name="Path 2224" d="M139.3,26.827h-6.67a.3.3,0,1,1,0-.61h6.67a.3.3,0,0,1,0,.61Z" transform="translate(-128.748 -19.714)" fill="#e6e6e6"/>
      <path id="Path_2225" data-name="Path 2225" d="M137.989,19.136H124.16a.3.3,0,1,1,0-.61h13.829a.3.3,0,0,1,0,.61Z" transform="translate(-123.855 -15.272)" fill="#e6e6e6"/>
    </g>
    <path id="Path_2226" data-name="Path 2226" d="M149.391,33.086h-5.77a.3.3,0,1,1,0-.61h5.77a.3.3,0,0,1,0,.61Z" transform="translate(-132.203 -18.755)" fill="#e6e6e6"/>
  </g>
  <path id="Path_2227" data-name="Path 2227" d="M166.648,318.662a.959.959,0,0,0,.695-1.662l-.066-.261.026-.063a2.575,2.575,0,0,1,4.749.018,22.865,22.865,0,0,1,2.009,5.723,7.617,7.617,0,0,1-.134,2.62,30.538,30.538,0,0,0,2.778-12.684,29.475,29.475,0,0,0-.183-3.288q-.151-1.343-.42-2.666a30.892,30.892,0,0,0-6.126-13.093,8.221,8.221,0,0,1-3.419-3.547,6.271,6.271,0,0,1-.57-1.714,7.74,7.74,0,0,0,.5-2.669c.232-.352.647-.527.9-.87,1.26-1.708,3-1.41,3.9.911,1.936.977,1.955,2.6.767,4.156-.756.992-.86,2.333-1.523,3.395.068.087.139.172.207.259a31.093,31.093,0,0,1,3.245,5.141,12.925,12.925,0,0,1,.772-6,21.65,21.65,0,0,1,3.342-4.823,2.653,2.653,0,0,1,4.725,1.3l.007.068q-.272.153-.532.325a1.3,1.3,0,0,0,.524,2.367l.027,0a12.945,12.945,0,0,1-.341,1.935c1.564,6.048-1.813,8.251-6.634,8.35-.106.055-.21.109-.317.161a31.737,31.737,0,0,1,1.708,8.039,30.1,30.1,0,0,1-.022,4.86l.008-.057a7.954,7.954,0,0,1,2.715-4.593c2.089-1.716,5.042-2.349,7.3-3.728a1.493,1.493,0,0,1,2.286,1.452l-.009.06a8.734,8.734,0,0,0-.98.472q-.272.153-.532.325a1.3,1.3,0,0,0,.524,2.367l.027,0,.055.008a12.952,12.952,0,0,1-2.382,3.73c-.978,5.28-5.178,5.781-9.671,4.243h0a31.724,31.724,0,0,1-2.131,6.222h-7.613c-.027-.085-.052-.172-.076-.257a8.65,8.65,0,0,0,2.107-.125c-.565-.693-1.13-1.392-1.695-2.085a.471.471,0,0,1-.035-.041c-.287-.355-.576-.707-.862-1.061h0a12.67,12.67,0,0,1,.371-3.228h0Z" transform="translate(-95.859 -163.674)" fill="#f2f2f2"/>
  <path id="Path_2228" data-name="Path 2228" d="M0,383.789a.5.5,0,0,0,.5.5H92.729a.5.5,0,0,0,0-1.006H.5A.5.5,0,0,0,0,383.789Z" transform="translate(0 -221.35)" fill="#ccc"/>
  <path id="Path_2229" data-name="Path 2229" d="M73.994,21.932H72.763c-3.6,0-9.762,5.1-7.379,8.675-2.035,5.428-2.109,8.252-1.245,9.73a1.654,1.654,0,0,0,1.578.748,2.454,2.454,0,0,1,.253,0c.609.02,1.426,2.883,1.993,3.1l1.5-.457,2.468-2.466L70.684,37.5,68.26,35.6l.33-4.391c-1.622-3.728.143-3.911,1.136-5.113l.1,3.858,1.422-1.373c1.159.03,2.512.532,3.412-.512,1.635-1.913,3.33.4,5.261.863l.6-.474a9.154,9.154,0,0,0-.447-3.044c-.145-.438-.517-.8-.533-1.234-.059-1.633-3.145-3.217-5.547-2.249h0Z" transform="translate(-36.739 -12.495)" fill="#2f2e41"/>
</svg>
