<svg xmlns="http://www.w3.org/2000/svg" width="284" height="144" viewBox="0 0 284 144">
  <g id="Group_4962" data-name="Group 4962" transform="translate(-1023.604 -298)">
    <rect id="Rectangle_200" data-name="Rectangle 200" width="284" height="143.764" transform="translate(1023.604 298)" fill="rgba(255,255,255,0)"/>
    <path id="Union_2" data-name="Union 2" d="M32.039,44.727a8.386,8.386,0,0,1,0-16.772H47.012a8.387,8.387,0,0,1,1.007-11.183H8.386A8.386,8.386,0,0,1,8.386,0H138.46a8.386,8.386,0,0,1,0,16.772H121.494A8.387,8.387,0,0,1,122.5,27.955h39.612a8.386,8.386,0,0,1,0,16.772Z" transform="translate(1042.454 393.558)" fill="#edf8ee"/>
    <path id="Union_3" data-name="Union 3" d="M9.3,49.6A9.3,9.3,0,0,1,9.3,31h22.82A9.3,9.3,0,0,1,31,18.6H24.5A9.3,9.3,0,0,1,24.5,0h75.8a9.3,9.3,0,0,1,0,18.6H77.964A9.3,9.3,0,0,1,76.846,31H85.1a9.3,9.3,0,0,1,0,18.6Z" transform="translate(1290.003 401.066) rotate(180)" fill="#edf8ee"/>
    <g id="Group_4957" data-name="Group 4957" transform="translate(1119.259 344.06)">
      <g id="Group_4956" data-name="Group 4956">
        <path id="Path_1963" data-name="Path 1963" d="M255.949,604.174c-7.644,13.315-15.093,26.359-22.143,38.772a4.7,4.7,0,0,1-4.41,2.475h-.011q-6.044-.022-12.091-.018l-10.122,0-10.36,0c-3.208,0-7.439,0-11.706.022h-.04a4.83,4.83,0,0,1-4.469-2.573c-8.392-14.763-15.387-27-22.015-38.527a5.28,5.28,0,0,1,.029-5.646c7.024-12.219,14.411-25.142,21.952-38.413a4.89,4.89,0,0,1,4.561-2.665h.018c7.3.018,14.745.026,22.132.026,7.259,0,14.668-.007,22.041-.026a4.883,4.883,0,0,1,4.572,2.647c7.416,13.055,14.844,26.059,22.081,38.655A4.935,4.935,0,0,1,255.949,604.174Z" transform="translate(-157.779 -557.6)" fill="#b4e4b8"/>
      </g>
    </g>
    <g id="Union_1" data-name="Union 1" transform="translate(1158.244 304.036)" fill="#edf8ee">
      <path d="M5.2,27.758a5.2,5.2,0,1,1,0-10.409H8.37a5.2,5.2,0,0,1,.785-7.082A5.205,5.205,0,0,1,10.37,0h43.2a5.2,5.2,0,0,1,0,10.409H26.833a5.2,5.2,0,0,1,.625,6.94H63.642a5.2,5.2,0,1,1,0,10.409Z" stroke="none"/>
      <path d="M 63.64170074462891 26.7578010559082 C 65.96018218994141 26.7578010559082 67.84640502929688 24.87158012390137 67.84640502929688 22.5531005859375 C 67.84640502929688 20.23512077331543 65.96018218994141 18.34930038452148 63.64170074462891 18.34930038452148 L 25.4555721282959 18.34930038452148 L 26.65878295898438 16.74847030639648 C 27.2087230682373 16.01679992675781 27.49940299987793 15.14465045928955 27.49940299987793 14.22630023956299 C 27.49940299987793 13.04290008544922 27.02129173278809 11.94776058197021 26.15314292907715 11.14261054992676 L 24.2843017578125 9.409400939941406 L 53.57340240478516 9.409400939941406 C 55.89138412475586 9.409400939941406 57.77720260620117 7.523180484771729 57.77720260620117 5.204700469970703 C 57.77720260620117 2.886220455169678 55.89138412475586 1.000000476837158 53.57340240478516 1.000000476837158 L 10.36980247497559 1.000000476837158 C 8.051322937011719 1.000000476837158 6.165102481842041 2.886220455169678 6.165102481842041 5.204700469970703 C 6.165102481842041 7.158960342407227 7.490282535552979 8.840640068054199 9.387702941894531 9.294240951538086 L 11.29883289337158 9.751110076904297 L 9.804632186889648 11.02725028991699 C 8.866652488708496 11.82832050323486 8.328702926635742 12.99433040618896 8.328702926635742 14.22630023956299 C 8.328702926635742 15.14465045928955 8.619382858276367 16.01679992675781 9.169312477111816 16.74847984313965 L 10.37250232696533 18.34930038452148 L 5.204702377319336 18.34930038452148 C 2.88622260093689 18.34930038452148 1.000002503395081 20.23512077331543 1.000002503395081 22.5531005859375 C 1.000002503395081 24.87158012390137 2.88622260093689 26.7578010559082 5.204702377319336 26.7578010559082 L 63.64170074462891 26.7578010559082 M 63.64170074462891 27.7578010559082 L 5.204702377319336 27.7578010559082 C 2.330102443695068 27.7578010559082 2.514648485885118e-06 25.42770004272461 2.514648485885118e-06 22.5531005859375 C 2.514648485885118e-06 19.67940139770508 2.330102443695068 17.34930038452148 5.204702377319336 17.34930038452148 L 8.369932174682617 17.34930038452148 C 7.716102600097656 16.47939109802246 7.328702449798584 15.39813041687012 7.328702449798584 14.22630023956299 C 7.328702449798584 12.64109039306641 8.03746223449707 11.22143077850342 9.155192375183105 10.26683044433594 C 6.866572380065918 9.719710350036621 5.165102481842041 7.661020755767822 5.165102481842041 5.204700469970703 C 5.165102481842041 2.330100536346436 7.495202541351318 5.279541142044764e-07 10.36980247497559 5.279541142044764e-07 L 53.57340240478516 5.279541142044764e-07 C 56.44710159301758 5.279541142044764e-07 58.77720260620117 2.330100536346436 58.77720260620117 5.204700469970703 C 58.77720260620117 8.079300880432129 56.44710159301758 10.40940093994141 53.57340240478516 10.40940093994141 L 26.83314323425293 10.40940093994141 C 27.85806274414062 11.35994052886963 28.49940299987793 12.71812057495117 28.49940299987793 14.22630023956299 C 28.49940299987793 15.39813041687012 28.11200332641602 16.47939109802246 27.45816230773926 17.34930038452148 L 63.64170074462891 17.34930038452148 C 66.51630401611328 17.34930038452148 68.84640502929688 19.67940139770508 68.84640502929688 22.5531005859375 C 68.84640502929688 25.42770004272461 66.51630401611328 27.7578010559082 63.64170074462891 27.7578010559082 Z" stroke="none" fill="rgba(95,200,41,0.06)"/>
    </g>
    <g id="Group_4955" data-name="Group 4955" transform="translate(1111.241 337.214)">
      <path id="Path_1961" data-name="Path 1961" d="M691.082,363.345c-3.4-.024-7.133-.036-11.746-.036q-3.518,0-7.037.006t-7.03.006q-3.494,0-6.987-.006t-6.993-.005c-4.594,0-8.31.011-11.7.035h-.042A2.221,2.221,0,0,1,637.229,362c-7.806-13.57-16.266-28.205-25.864-44.74a2.181,2.181,0,0,1,.045-2.617c8.417-14.493,17.121-29.544,25.868-44.737a1.956,1.956,0,0,1,2.017-1.228q12.966.019,25.917.019,13.048,0,26.1-.019a1.955,1.955,0,0,1,2.039,1.2c9.2,15.978,17.662,30.612,25.871,44.737a2.31,2.31,0,0,1,0,2.746c-9.843,16.963-18.038,31.142-25.791,44.622a2.221,2.221,0,0,1-2.311,1.368Zm-48.1-91.734a4.938,4.938,0,0,0-4.609,2.7c-7.626,13.414-15.092,26.478-22.192,38.829a5.332,5.332,0,0,0-.032,5.706c6.7,11.65,13.772,24.026,22.257,38.947a4.878,4.878,0,0,0,4.516,2.6h.039c4.316-.022,8.591-.024,11.834-.024l10.476,0,10.229,0q6.111,0,12.224.017h.01a4.754,4.754,0,0,0,4.459-2.5c7.128-12.55,14.659-25.737,22.384-39.195a4.986,4.986,0,0,0,.018-5.332c-7.313-12.733-14.823-25.88-22.321-39.075a4.936,4.936,0,0,0-4.621-2.675c-7.45.017-14.94.026-22.279.026-7.468,0-15-.009-22.374-.027Z" transform="translate(-610.951 -268.675)" fill="#66c76f"/>
      <path id="Path_2032" data-name="Path 2032" d="M360.6,318.631a2.713,2.713,0,0,1-1.623-.831c-3.791-3.5-7.5-7.291-11.078-10.955q-1.131-1.156-2.263-2.311a.8.8,0,0,1-.124-.511,1.848,1.848,0,0,1,.54-1.266,1.729,1.729,0,0,1,1.182-.491,1.189,1.189,0,0,1,.808.289l11.618,12.3,19.015-21.549q.607-.688,1.21-1.381c.9-1.029,1.828-2.094,2.754-3.094a2.093,2.093,0,0,1,1.483-.758,1.543,1.543,0,0,1,1.03.421,1.714,1.714,0,0,1,.005,2.59q-4.817,5.529-9.652,11.042c-4.548,5.195-9.252,10.566-13.853,15.877-.542.625-.923.628-1.05.628Z" transform="translate(-310.916 -253.186)" fill="#66c76f"/>
    </g>
    <g id="Group_4958" data-name="Group 4958" transform="translate(1232.384 421.769)">
      <g id="Group_4956-2" data-name="Group 4956">
        <path id="Path_1963-2" data-name="Path 1963" d="M180.393,568.328c-1.761,3.067-3.477,6.072-5.1,8.931a1.084,1.084,0,0,1-1.016.57h0q-1.392-.005-2.785,0H166.77c-.739,0-1.714,0-2.7.005h-.009a1.113,1.113,0,0,1-1.029-.593c-1.933-3.4-3.544-6.22-5.071-8.875a1.216,1.216,0,0,1,.007-1.3c1.618-2.815,3.32-5.792,5.057-8.849a1.126,1.126,0,0,1,1.051-.614h0c1.681,0,3.4.006,5.1.006,1.672,0,3.379,0,5.077-.006a1.125,1.125,0,0,1,1.053.61c1.708,3.007,3.419,6,5.086,8.9A1.137,1.137,0,0,1,180.393,568.328Z" transform="translate(-157.779 -557.6)" fill="#b4e4b8"/>
      </g>
    </g>
    <g id="Group_4963" data-name="Group 4963" transform="translate(1238.16 304.036)">
      <g id="Group_4956-3" data-name="Group 4956">
        <path id="Path_1963-3" data-name="Path 1963" d="M168.952,562.9c-.87,1.515-1.718,3-2.52,4.413a.536.536,0,0,1-.5.282h0l-1.376,0h-2.331c-.365,0-.847,0-1.332,0h0a.55.55,0,0,1-.509-.293c-.955-1.68-1.751-3.073-2.506-4.385a.6.6,0,0,1,0-.643c.8-1.391,1.64-2.861,2.5-4.372a.556.556,0,0,1,.519-.3h0c.831,0,1.678,0,2.519,0s1.669,0,2.508,0a.556.556,0,0,1,.52.3c.844,1.486,1.689,2.966,2.513,4.4A.562.562,0,0,1,168.952,562.9Z" transform="translate(-157.779 -557.6)" fill="#edf8ee"/>
      </g>
    </g>
    <g id="Group_4960" data-name="Group 4960" transform="translate(1297.904 384.634) rotate(90)">
      <g id="Group_4956-4" data-name="Group 4956" transform="translate(0)">
        <path id="Path_1963-4" data-name="Path 1963" d="M8.848,4.2c-.689,1.2-1.36,2.376-2,3.495a.424.424,0,0,1-.4.223h0l-1.09,0H3.518c-.289,0-.67,0-1.055,0h0a.435.435,0,0,1-.4-.232C1.3,6.353.67,5.25.072,4.211a.476.476,0,0,1,0-.509C.708,2.6,1.374,1.436,2.054.24A.441.441,0,0,1,2.465,0h0L4.461,0,6.448,0A.44.44,0,0,1,6.86.239C7.528,1.415,8.2,2.587,8.85,3.723A.445.445,0,0,1,8.848,4.2Z" fill="#94d89b"/>
      </g>
    </g>
    <g id="Group_4959" data-name="Group 4959" transform="translate(1074.608 345.811)">
      <g id="Group_4956-5" data-name="Group 4956">
        <path id="Path_1963-5" data-name="Path 1963" d="M170.9,563.825c-1.022,1.78-2.017,3.523-2.96,5.183a.629.629,0,0,1-.59.331h0q-.808,0-1.616,0H163c-.429,0-.994,0-1.565,0h-.005a.646.646,0,0,1-.6-.344c-1.122-1.973-2.057-3.61-2.943-5.15a.706.706,0,0,1,0-.755c.939-1.633,1.926-3.361,2.934-5.135a.654.654,0,0,1,.61-.356h0c.976,0,1.971,0,2.958,0,.97,0,1.961,0,2.946,0a.653.653,0,0,1,.611.354c.991,1.745,1.984,3.483,2.951,5.167A.66.66,0,0,1,170.9,563.825Z" transform="translate(-157.779 -557.6)" fill="#b4e4b8"/>
      </g>
    </g>
  </g>
</svg>
