<svg id="Group_5109" data-name="Group 5109" xmlns="http://www.w3.org/2000/svg" width="284" height="144.348" viewBox="0 0 284 144.348">
  <rect id="Rectangle_200" data-name="Rectangle 200" width="284" height="143.373" fill="rgba(255,255,255,0)"/>
  <path id="Union_2" data-name="Union 2" d="M30.2,42.154a7.9,7.9,0,0,1,0-15.808H44.308a7.906,7.906,0,0,1,.949-10.539H7.9A7.9,7.9,0,0,1,7.9,0H130.5a7.9,7.9,0,1,1,0,15.808h-15.99a7.9,7.9,0,0,1,.949,10.539h37.333a7.9,7.9,0,1,1,0,15.808Z" transform="translate(17.766 97.94)" fill="#f0ffe1"/>
  <path id="Union_3" data-name="Union 3" d="M8.765,46.748a8.766,8.766,0,0,1,0-17.531H30.271A8.767,8.767,0,0,1,29.218,17.53H23.095a8.765,8.765,0,0,1,0-17.53H94.53a8.765,8.765,0,0,1,0,17.53H73.48a8.767,8.767,0,0,1-1.053,11.687H80.2a8.766,8.766,0,0,1,0,17.531Z" transform="translate(267.412 101.6) rotate(180)" fill="#f0ffe1"/>
  <g id="Group_4957" data-name="Group 4957" transform="translate(98.597 51.29)">
    <g id="Group_4956" data-name="Group 4956">
      <path id="Path_1963" data-name="Path 1963" d="M250.3,601.495c-7.2,12.549-14.225,24.843-20.869,36.542a4.434,4.434,0,0,1-4.157,2.332h-.01q-5.7-.021-11.4-.017l-9.54,0-9.764,0c-3.023,0-7.011,0-11.033.021H183.5a4.552,4.552,0,0,1-4.212-2.425c-7.909-13.914-14.5-25.451-20.749-36.311a4.976,4.976,0,0,1,.028-5.321c6.62-11.516,13.582-23.7,20.69-36.2a4.609,4.609,0,0,1,4.3-2.512h.017c6.879.017,13.9.024,20.859.024,6.841,0,13.824-.007,20.773-.024a4.6,4.6,0,0,1,4.309,2.495c6.99,12.3,13.99,24.56,20.811,36.432A4.651,4.651,0,0,1,250.3,601.495Z" transform="translate(-157.779 -557.6)" fill="#c8efa2"/>
    </g>
  </g>
  <g id="Union_1" data-name="Union 1" transform="translate(137.118 5.689)" fill="#f0ffe1">
    <path d="M4.905,26.161a4.905,4.905,0,0,1,0-9.81H7.889a4.906,4.906,0,0,1,.74-6.675A4.906,4.906,0,0,1,9.773,0H50.492a4.905,4.905,0,0,1,0,9.81h-25.2a4.906,4.906,0,0,1,.589,6.541h34.1a4.905,4.905,0,0,1,0,9.81Z" stroke="none"/>
    <path d="M 59.98141098022461 25.16120147705078 C 62.13462829589844 25.16120147705078 63.88639831542969 23.40942001342773 63.88639831542969 21.25620079040527 C 63.88639831542969 19.10298156738281 62.13462829589844 17.35120010375977 59.98141098022461 17.35120010375977 L 23.87581825256348 17.35120010375977 L 25.07880973815918 15.75043106079102 C 25.58960914611816 15.0707311630249 25.85960006713867 14.26049041748047 25.85960006713867 13.40730094909668 C 25.85960006713867 12.30829048156738 25.41546821594238 11.29113101959229 24.60902976989746 10.54321098327637 L 22.74020957946777 8.810000419616699 L 50.49179840087891 8.810000419616699 C 52.64501953125 8.810000419616699 54.39680099487305 7.058220863342285 54.39680099487305 4.905000686645508 C 54.39680099487305 2.75178074836731 52.64501953125 1.000000715255737 50.49179840087891 1.000000715255737 L 9.773098945617676 1.000000715255737 C 7.619879245758057 1.000000715255737 5.868099212646484 2.75178074836731 5.868099212646484 4.905000686645508 C 5.868099212646484 6.720130920410156 7.098978996276855 8.281980514526367 8.861379623413086 8.703141212463379 L 10.77297878265381 9.159940719604492 L 9.278328895568848 10.4362211227417 C 8.407149314880371 11.18012046813965 7.907499313354492 12.26304054260254 7.907499313354492 13.40730094909668 C 7.907499313354492 14.26050090789795 8.177489280700684 15.07074069976807 8.688279151916504 15.75043106079102 L 9.891268730163574 17.35120010375977 L 4.904999256134033 17.35120010375977 C 2.751779079437256 17.35120010375977 0.9999991655349731 19.10298156738281 0.9999991655349731 21.25620079040527 C 0.9999991655349731 23.40942001342773 2.751779079437256 25.16120147705078 4.904999256134033 25.16120147705078 L 59.98141098022461 25.16120147705078 M 59.98141098022461 26.16120147705078 L 4.904999256134033 26.16120147705078 C 2.195999145507812 26.16120147705078 -8.422851465184067e-07 23.96520042419434 -8.422851465184067e-07 21.25620079040527 C -8.422851465184067e-07 18.54720115661621 2.195999145507812 16.35120010375977 4.904999256134033 16.35120010375977 L 7.888859272003174 16.35120010375977 C 7.272669315338135 15.53126049041748 6.907499313354492 14.51196098327637 6.907499313354492 13.40730094909668 C 6.907499313354492 11.91325092315674 7.575379371643066 10.57540035247803 8.628958702087402 9.675750732421875 C 6.471919059753418 9.160290718078613 4.868099212646484 7.219980716705322 4.868099212646484 4.905000686645508 C 4.868099212646484 2.196000814437866 7.064099311828613 7.385253866232233e-07 9.773098945617676 7.385253866232233e-07 L 50.49179840087891 7.385253866232233e-07 C 53.20079803466797 7.385253866232233e-07 55.39680099487305 2.196000814437866 55.39680099487305 4.905000686645508 C 55.39680099487305 7.614000797271729 53.20079803466797 9.810000419616699 50.49179840087891 9.810000419616699 L 25.28903007507324 9.810000419616699 C 26.25494003295898 10.70582103729248 26.85960006713867 11.98600101470947 26.85960006713867 13.40730094909668 C 26.85960006713867 14.51196098327637 26.49441909790039 15.53126049041748 25.87822914123535 16.35120010375977 L 59.98141098022461 16.35120010375977 C 62.69041061401367 16.35120010375977 64.88639831542969 18.54720115661621 64.88639831542969 21.25620079040527 C 64.88639831542969 23.96520042419434 62.69041061401367 26.16120147705078 59.98141098022461 26.16120147705078 Z" stroke="none" fill="rgba(95,200,41,0.06)"/>
  </g>
  <g id="Group_4955" data-name="Group 4955" transform="translate(90.726 44.824)">
    <path id="Path_1961" data-name="Path 1961" d="M686.472,357.9c-3.205-.023-6.722-.034-11.07-.034q-3.316,0-6.632.005t-6.626.005q-3.293,0-6.585-.005t-6.591,0c-4.329,0-7.832.01-11.022.033h-.039a2.094,2.094,0,0,1-2.189-1.27c-7.357-12.789-15.33-26.583-24.376-42.167a2.055,2.055,0,0,1,.042-2.467c7.933-13.659,16.136-27.845,24.38-42.164a1.843,1.843,0,0,1,1.9-1.157q12.221.018,24.426.018,12.3,0,24.6-.018a1.842,1.842,0,0,1,1.922,1.129c8.671,15.059,16.646,28.851,24.383,42.164a2.177,2.177,0,0,1,0,2.588c-9.277,15.987-17,29.351-24.307,42.055a2.094,2.094,0,0,1-2.178,1.29Zm-45.336-86.457a4.654,4.654,0,0,0-4.344,2.541c-7.187,12.642-14.224,24.955-20.915,36.6a5.025,5.025,0,0,0-.03,5.378c6.315,10.979,12.98,22.644,20.977,36.707a4.6,4.6,0,0,0,4.257,2.454h.036c4.067-.021,8.1-.023,11.153-.023l9.873,0,9.641,0q5.76,0,11.521.016h.01a4.48,4.48,0,0,0,4.2-2.355c6.718-11.828,13.816-24.257,21.1-36.94a4.7,4.7,0,0,0,.017-5.025c-6.892-12-13.971-24.391-21.037-36.827a4.652,4.652,0,0,0-4.355-2.522c-7.022.016-14.081.024-21,.024-7.039,0-14.133-.008-21.087-.025Z" transform="translate(-610.951 -268.675)" fill="#52c41a"/>
    <g id="Group_5023" data-name="Group 5023" transform="translate(28.35 20.684)">
      <path id="Path_2042" data-name="Path 2042" d="M556.038,871.807a1.135,1.135,0,0,1-.86-.4,1.192,1.192,0,0,1-.279-.863,22.293,22.293,0,0,1,7.289-16.325,21.865,21.865,0,0,1,6.439-4.146c.092-.039.182-.082.286-.132l.13-.063,1.7-.8-1.488-1.145c-4.016-3.091-5.861-6.917-5.641-11.7a12.95,12.95,0,0,1,4.191-9,13.13,13.13,0,0,1,9.119-3.643,13.424,13.424,0,0,1,13.39,14.544,13.025,13.025,0,0,1-5.3,9.55l-1.524,1.107,1.683.847c.407.2.813.4,1.219.6.945.465,1.837.905,2.718,1.391a1.061,1.061,0,0,1,.526,1.259,1.1,1.1,0,0,1-1.078.86,1.367,1.367,0,0,1-.705-.208,21.327,21.327,0,0,0-5.345-2.294,19.8,19.8,0,0,0-5.189-.694A20.159,20.159,0,0,0,557.441,867.6c-.111.747-.153,1.49-.195,2.209-.014.255-.029.511-.047.766a1.2,1.2,0,0,1-.783,1.169A1.147,1.147,0,0,1,556.038,871.807Zm20.9-45.929a11.1,11.1,0,0,0,0,22.2h.071a11.1,11.1,0,0,0-.041-22.2Z" transform="translate(-554.898 -823.599)" fill="#52c41a"/>
      <path id="Path_2043" data-name="Path 2043" d="M758.877,1063.226a1.977,1.977,0,0,1-1.01-.395l-6.426-4.278a1.177,1.177,0,0,1-.486-1.679,1.067,1.067,0,0,1,.916-.521,1.514,1.514,0,0,1,.824.272c1.109.733,2.193,1.46,3.339,2.229l1.478.99.936.626.644-.924.142-.2c.1-.136.182-.259.265-.383l2.5-3.744q2.47-3.7,4.942-7.4a1.3,1.3,0,0,1,1.034-.659,1.193,1.193,0,0,1,.43.086,1.108,1.108,0,0,1,.669.688,1.183,1.183,0,0,1-.144,1.013c-.477.759-.991,1.522-1.489,2.26q-.313.465-.625.931-3.42,5.13-6.841,10.258C759.417,1063.226,759.01,1063.226,758.877,1063.226Z" transform="translate(-722.676 -1015.095)" fill="#52c41a"/>
    </g>
  </g>
  <g id="Group_4958" data-name="Group 4958" transform="translate(209.828 124.528)">
    <g id="Group_4956-2" data-name="Group 4956">
      <path id="Path_1963-2" data-name="Path 1963" d="M179.092,567.711c-1.659,2.891-3.277,5.723-4.807,8.418a1.021,1.021,0,0,1-.957.537h0q-1.312,0-2.625,0h-4.447c-.7,0-1.615,0-2.541,0H163.7a1.049,1.049,0,0,1-.97-.559c-1.822-3.205-3.34-5.863-4.779-8.364a1.146,1.146,0,0,1,.006-1.226c1.525-2.653,3.129-5.458,4.766-8.34a1.062,1.062,0,0,1,.99-.579h0c1.585,0,3.2.005,4.8.005,1.576,0,3.184,0,4.785-.005a1.06,1.06,0,0,1,.992.575c1.61,2.834,3.223,5.657,4.794,8.392A1.071,1.071,0,0,1,179.092,567.711Z" transform="translate(-157.779 -557.6)" fill="#f0ffe1" stroke="#71df3a" stroke-width="1.5"/>
    </g>
  </g>
  <g id="Group_4963" data-name="Group 4963" transform="translate(215.066 5.689)">
    <g id="Group_4956-3" data-name="Group 4956">
      <path id="Path_1963-3" data-name="Path 1963" d="M168.309,562.6c-.82,1.428-1.619,2.827-2.375,4.159a.5.5,0,0,1-.473.265h0l-1.3,0h-2.2c-.344,0-.8,0-1.256,0h0a.518.518,0,0,1-.479-.276c-.9-1.584-1.65-2.9-2.361-4.133a.567.567,0,0,1,0-.606c.753-1.311,1.546-2.7,2.355-4.12a.524.524,0,0,1,.489-.286h0c.783,0,1.582,0,2.374,0s1.573,0,2.364,0a.524.524,0,0,1,.49.284c.8,1.4,1.592,2.8,2.368,4.146A.529.529,0,0,1,168.309,562.6Z" transform="translate(-157.779 -557.6)" fill="#f0ffe1"/>
    </g>
  </g>
  <g id="Group_4960" data-name="Group 4960" transform="translate(274.858 86.703) rotate(90)">
    <g id="Group_4956-4" data-name="Group 4956" transform="translate(0)">
      <path id="Path_1963-4" data-name="Path 1963" d="M8.339,3.956C7.69,5.087,7.057,6.2,6.458,7.25a.4.4,0,0,1-.375.21h0l-1.027,0H3.316c-.273,0-.632,0-.994,0h0a.41.41,0,0,1-.38-.219C1.226,5.988.631,4.948.068,3.969a.449.449,0,0,1,0-.48C.667,2.452,1.295,1.354,1.936.226A.415.415,0,0,1,2.323,0h0L4.2,0,6.077,0a.415.415,0,0,1,.388.225C7.1,1.334,7.726,2.438,8.341,3.509A.419.419,0,0,1,8.339,3.956Z" fill="#5cc726"/>
    </g>
  </g>
  <g id="Group_4959" data-name="Group 4959" transform="translate(51.148 47.909)">
    <g id="Group_4956-5" data-name="Group 4956">
      <path id="Path_1963-5" data-name="Path 1963" d="M170.146,563.467c-.963,1.677-1.9,3.321-2.79,4.884a.593.593,0,0,1-.556.312h0l-1.523,0H162.7c-.4,0-.937,0-1.475,0h-.005a.608.608,0,0,1-.563-.324c-1.057-1.86-1.938-3.4-2.773-4.853a.665.665,0,0,1,0-.711c.885-1.539,1.815-3.167,2.766-4.839a.616.616,0,0,1,.575-.336h0c.92,0,1.858,0,2.788,0,.914,0,1.848,0,2.777,0a.615.615,0,0,1,.576.333c.934,1.645,1.87,3.283,2.782,4.87A.622.622,0,0,1,170.146,563.467Z" transform="translate(-157.779 -557.6)" fill="#f0ffe1" stroke="#5cc726" stroke-width="2"/>
    </g>
  </g>
</svg>
