<svg xmlns="http://www.w3.org/2000/svg" width="140.018" height="121.237" viewBox="0 0 140.018 121.237">
  <g id="Group_6646" data-name="Group 6646" transform="translate(-392 -411.852)">
    <g id="Group_5693" data-name="Group 5693" transform="translate(392 411.852)">
      <g id="Path_2233" data-name="Path 2233" transform="translate(70.015 90.928)">
        <path id="Path_12792" data-name="Path 12792" d="M575.01,634.383h-35l17.5-30.309h0Z" transform="translate(-540.013 -604.074)" fill="#abf2f1"/>
      </g>
      <g id="Path_2234" data-name="Path 2234" transform="translate(35.015 90.928)">
        <path id="Path_12793" data-name="Path 12793" d="M501.019,634.383h-35l17.5-30.309Z" transform="translate(-466.022 -604.074)" fill="#2dc1be"/>
      </g>
      <g id="Path_2235" data-name="Path 2235" transform="translate(52.511 90.928)">
        <path id="Path_12794" data-name="Path 12794" d="M520.506,634.383l-17.5-30.309h35Z" transform="translate(-503.008 -604.074)" fill="#8ce1df"/>
      </g>
      <g id="Path_2238" data-name="Path 2238" transform="translate(70.012)">
        <path id="Path_12795" data-name="Path 12795" d="M557.505,442.161h0l-17.5-30.309h35Z" transform="translate(-540.007 -411.852)" fill="#d596ab"/>
      </g>
      <g id="Path_2239" data-name="Path 2239" transform="translate(35.012)">
        <path id="Path_12796" data-name="Path 12796" d="M483.514,442.161l-17.5-30.309h35Z" transform="translate(-466.016 -411.852)" fill="#aa2b56"/>
      </g>
      <g id="Path_2240" data-name="Path 2240" transform="translate(0.015 60.616)">
        <path id="Path_12797" data-name="Path 12797" d="M409.53,570.306h0l-17.5-30.312h35Z" transform="translate(-392.032 -539.994)" fill="#999dfa"/>
      </g>
      <g id="Path_2241" data-name="Path 2241" transform="translate(17.514 90.928)">
        <path id="Path_12798" data-name="Path 12798" d="M446.522,634.383l-17.5-30.309h35Z" transform="translate(-429.024 -604.074)" fill="#4950df"/>
      </g>
      <g id="Path_2242" data-name="Path 2242" transform="translate(17.511 60.616)">
        <path id="Path_12799" data-name="Path 12799" d="M464.015,570.306h-35l17.5-30.312Z" transform="translate(-429.018 -539.994)" fill="#6f75f7"/>
      </g>
      <g id="Path_2243" data-name="Path 2243" transform="translate(105.021 30.305)">
        <path id="Path_12800" data-name="Path 12800" d="M649.013,506.226h-35l17.5-30.309Z" transform="translate(-614.016 -475.917)" fill="#fab570"/>
      </g>
      <g id="Path_2244" data-name="Path 2244" transform="translate(87.514)">
        <path id="Path_12801" data-name="Path 12801" d="M612,442.161h-35l17.5-30.309L612,442.158Z" transform="translate(-577.005 -411.852)" fill="#ffe1c4"/>
      </g>
      <g id="Path_2245" data-name="Path 2245" transform="translate(17.516)">
        <path id="Path_12802" data-name="Path 12802" d="M464.027,442.161h-35l17.5-30.309Z" transform="translate(-429.03 -411.852)" fill="#912b91"/>
      </g>
      <g id="Path_2246" data-name="Path 2246" transform="translate(0 30.305)">
        <path id="Path_12803" data-name="Path 12803" d="M427.012,506.226H392l17.5-30.309h0Z" transform="translate(-392 -475.917)" fill="#c896c8"/>
      </g>
      <g id="Path_2247" data-name="Path 2247" transform="translate(52.511)">
        <path id="Path_12804" data-name="Path 12804" d="M538,442.161h-35l17.5-30.309Z" transform="translate(-503.008 -411.852)" fill="#c46b89"/>
      </g>
      <g id="Path_2248" data-name="Path 2248" transform="translate(17.514 30.305)">
        <path id="Path_12805" data-name="Path 12805" d="M446.522,506.226l-17.5-30.309h35Z" transform="translate(-429.024 -475.917)" fill="#b26bb2"/>
      </g>
      <g id="Path_2249" data-name="Path 2249" transform="translate(87.508 30.305)">
        <path id="Path_12806" data-name="Path 12806" d="M594.494,506.226l-17.5-30.309h35Z" transform="translate(-576.992 -475.917)" fill="#ffd4a9"/>
      </g>
      <g id="Path_2250" data-name="Path 2250" transform="translate(105.021 60.616)">
        <path id="Path_12807" data-name="Path 12807" d="M631.508,570.306l-17.492-30.312h35Z" transform="translate(-614.016 -539.994)" fill="#2b8080"/>
      </g>
      <g id="Path_2251" data-name="Path 2251" transform="translate(87.514 60.616)">
        <path id="Path_12808" data-name="Path 12808" d="M612,570.306h-35l17.5-30.312Z" transform="translate(-577.005 -539.994)" fill="#6ba6a6"/>
      </g>
      <g id="Path_2252" data-name="Path 2252" transform="translate(87.508 90.928)">
        <path id="Path_12809" data-name="Path 12809" d="M594.494,634.383l-17.5-30.309h35Z" transform="translate(-576.992 -604.074)" fill="#96c0c0"/>
      </g>
    </g>
  </g>
</svg>
