<svg xmlns="http://www.w3.org/2000/svg" width="21" height="27" viewBox="0 0 21.86 27.746"><title>subscriber</title><g fill="#212121" class="nc-icon-wrapper"><g id="1689733118007-9119038_Group_5111" data-name="Group 5111" transform="translate(-164.215 -149.641)"><path id="1689733118007-9119038_Path_2184" data-name="Path 2184" d="M186.067 326.23a9.562 9.562 0 0 0-.119-1.416 8.9 8.9 0 0 0-8.74-7.466.984.984 0 0 0-1.007 1.307q.862 3.463 1.733 6.923a.572.572 0 0 1-.153.65c-.8.764-1.572 1.554-2.349 2.341a1.671 1.671 0 0 0-.2.337c-.952-.954-1.8-1.818-2.666-2.657a.6.6 0 0 1-.181-.671q.882-3.458 1.736-6.923a.986.986 0 0 0-1.038-1.307 8.555 8.555 0 0 0-4.838 1.485 8.366 8.366 0 0 0-3.89 6.226c-.208 2.025-.1 4.083-.141 6.149h21.858c.001-1.674.009-3.326-.005-4.978z" transform="translate(0 -153.822)"></path><path id="1689733118007-9119038_Path_2185" data-name="Path 2185" d="M230.462 161.54a5.95 5.95 0 1 0-5.917-5.978 5.955 5.955 0 0 0 5.917 5.978z" transform="translate(-55.336)"></path></g></g></svg>