<svg xmlns="http://www.w3.org/2000/svg" width="16" height="12" viewBox="0 0 16 12.802"><title>supervisor</title><g fill="#212121" class="nc-icon-wrapper"><g id="1689733118008-6575534_Group_5201" data-name="Group 5201" transform="translate(-23 -348.999)"><g id="1689733118008-6575534_Group_5169" data-name="Group 5169" transform="translate(23 348.999)"><path id="1689733118008-6575534_Path_12574" data-name="Path 12574" d="M-1011.147 905.847h1.6v-7.2h-8.8v1.194a7.547 7.547 0 0 0-.774-.291 7.765 7.765 0 0 0-.825-.13 3.953 3.953 0 0 1 .112-1.324 1.562 1.562 0 0 1 .972-.951 2.029 2.029 0 0 1 .692-.1h8.529a1.652 1.652 0 0 1 1.2.461 1.537 1.537 0 0 1 .473.971c.014.142.021.285.021.427v6.851a1.66 1.66 0 0 1-.268.957 1.575 1.575 0 0 1-.828.638 2.2 2.2 0 0 1-.684.1h-5.689a.149.149 0 0 1-.157-.1 3.99 3.99 0 0 0-.854-1.158c-.121-.115-.257-.215-.405-.338h2.488v-.124c.006-.276 0-.552.02-.828a.712.712 0 0 1 .636-.632 56.854 56.854 0 0 1 1.752-.017.751.751 0 0 1 .66.348.886.886 0 0 1 .127.489v.657z" transform="translate(1023.945 -897.048)"></path><path id="1689733118008-6575534_Path_12575" data-name="Path 12575" d="M-1225.673 1362.966h-3.259a.7.7 0 0 1-.589-.252.684.684 0 0 1-.142-.444 3.357 3.357 0 0 1 .432-1.618 3.417 3.417 0 0 1 .949-1.052 3.214 3.214 0 0 1 1.449-.586 3.926 3.926 0 0 1 .531-.041q.624-.009 1.248 0a3.4 3.4 0 0 1 1.7.434 3.394 3.394 0 0 1 1.137 1.075 3.288 3.288 0 0 1 .529 1.607.988.988 0 0 1-.082.545.566.566 0 0 1-.359.29 1.192 1.192 0 0 1-.328.043l-3.216-.001z" transform="translate(1229.663 -1350.165)"></path><path id="1689733118008-6575534_Path_12576" data-name="Path 12576" d="M-1140.6 1067.952a2.363 2.363 0 0 1-2.4 2.39 2.334 2.334 0 0 1-2.388-2.384 2.334 2.334 0 0 1 2.387-2.395 2.362 2.362 0 0 1 2.401 2.389z" transform="translate(1146.993 -1062.353)"></path></g></g></g></svg>