<svg xmlns="http://www.w3.org/2000/svg" width="32" height="32" viewBox="0 0 32 32"><title>toga</title><g fill="#212121" class="nc-icon-wrapper"><path id="1689733118009-4140021_Path_2030" data-name="Path 2030" d="M0 0h32v32H0z" fill="none"></path><path id="1689733118009-4140021_Path_2031" data-name="Path 2031" d="M5.977 16.547v3.766a2.7 2.7 0 0 0 1.389 2.359l6.68 3.658a2.646 2.646 0 0 0 2.565 0l6.68-3.658a2.7 2.7 0 0 0 1.389-2.359v-3.766l-8.069 4.422a2.646 2.646 0 0 1-2.565 0zM14.046 3.6L2.784 9.766a1.351 1.351 0 0 0 0 2.359l11.262 6.164a2.646 2.646 0 0 0 2.565 0l10.741-5.883v7.92a1.336 1.336 0 1 0 2.672 0v-8.59a1.348 1.348 0 0 0-.695-1.179L16.611 3.6a2.718 2.718 0 0 0-2.565 0z" transform="translate(.66 1.035)" fill="#212121"></path></g></svg>